<svg width="50" height="57" viewBox="0 0 50 57" fill="none" xmlns="http://www.w3.org/2000/svg">
<path d="M28.9388 34.7656L27.5132 36.5341C26.4034 37.9064 20.8623 44.9504 20.8623 48.8472C20.8623 53.2943 24.4855 56.9192 28.9388 56.9192C33.3926 56.9192 37.0153 53.3015 37.0153 48.8472C37.0153 44.9511 31.4742 37.9064 30.3644 36.5341L28.9388 34.7656ZM28.9388 53.2428C26.5064 53.2428 24.5368 51.2692 24.5368 48.8398C24.5368 47.2985 26.8221 43.5933 28.9388 40.7019C31.0555 43.6005 33.3408 47.2987 33.3408 48.8398C33.3408 51.2685 31.3712 53.2428 28.9388 53.2428Z" fill="#5AAF4C"/>
<path d="M48.5391 8.3047C37.4493 -2.76823 19.4079 -2.76823 8.31732 8.3047C-2.77244 19.3776 -2.77244 37.3917 8.31732 48.4655L9.61787 49.764L28.1599 31.2502C27.8805 30.9492 27.697 30.597 27.616 30.2229C27.4545 29.5037 27.6529 28.7257 28.2111 28.1683C28.7181 27.662 29.4015 27.464 30.0556 27.5443C30.1289 27.5515 30.2028 27.5592 30.2761 27.5735C30.6508 27.6544 31.0112 27.8376 31.3049 28.1166L49.8469 9.60271L48.5391 8.3047ZM14.6231 39.5722C12.4331 36.8937 11.1029 33.6576 10.7501 30.2166H23.9864L14.6231 39.5722ZM10.743 26.5471C11.0957 23.1053 12.4332 19.8771 14.6231 17.1985L23.9934 26.5471H10.743ZM26.5869 23.957L17.2241 14.6009C19.9139 12.4142 23.1399 11.0788 26.594 10.7267L26.5945 23.9573L26.5869 23.957ZM30.2614 23.957V10.7343C33.7084 11.0865 36.9415 12.4147 39.6312 14.6014L30.2614 23.957ZM42.2335 11.9961C38.3755 8.73817 33.532 6.96252 28.4251 6.96252C22.6928 6.96252 17.306 9.19312 13.2558 13.2363C9.20656 17.2794 6.97244 22.658 6.97244 28.3826C6.97244 33.4899 8.75079 38.3181 12.0136 42.17L9.65446 44.5256C1.26929 34.8173 1.68819 20.1047 10.9037 10.8956C15.7322 6.0745 22.0745 3.66058 28.4169 3.66058C34.186 3.66058 39.9552 5.65623 44.5848 9.64112L42.2335 11.9961Z" fill="#5AAF4C"/>
</svg>
