<svg width="27" height="16" viewBox="0 0 27 16" fill="none" xmlns="http://www.w3.org/2000/svg">
<path d="M0.46539 0.870549H4.93555C5.029 0.870397 5.12028 0.89878 5.19723 0.951918C5.27418 1.00506 5.33314 1.08043 5.36627 1.16799C5.86101 2.44523 7.91565 7.44337 9.79568 7.85162C11.1926 7.85162 10.6979 1.20298 8.9226 1.20298C8.45696 1.20298 9.74912 0.374817 9.83643 0.339824C11.4862 -0.113275 13.2272 -0.113275 14.877 0.339824C15.7675 0.713081 15.9189 1.75703 15.9422 2.64352C15.9654 3.53001 14.9527 7.30923 16.2856 7.71748C18.0317 8.25404 20.2784 2.76599 20.8023 1.41877C20.8363 1.3323 20.8957 1.25817 20.9726 1.20613C21.0494 1.15408 21.1402 1.12656 21.233 1.12716H26.2095C26.2865 1.12692 26.3622 1.14577 26.4301 1.18202C26.4979 1.21828 26.5558 1.27081 26.5984 1.33492C26.6411 1.39904 26.6672 1.47275 26.6745 1.54946C26.6818 1.62617 26.6701 1.70349 26.6403 1.77453C25.6152 4.11773 24.3862 6.36596 22.9675 8.49316C22.8469 8.6687 22.7903 8.88051 22.8073 9.09295C22.8242 9.30539 22.9137 9.50549 23.0606 9.65959C24.5507 11.2576 28.6251 15.7833 26.2969 15.7833H21.2737C21.1439 15.7837 21.0155 15.7563 20.8971 15.703C20.7787 15.6497 20.6729 15.5717 20.5869 15.4742C19.807 14.6111 17.537 12.2082 16.5126 12.4007C15.6628 12.5582 15.5813 14.0045 15.622 14.9493C15.6349 15.1931 15.5519 15.4322 15.3908 15.6154C15.2298 15.7985 15.0035 15.9112 14.7606 15.9291C13.87 15.9816 12.6536 16.005 12.543 15.9991C8.99245 15.7717 6.89124 13.398 4.88316 10.7502C2.77971 7.94305 1.13886 4.81625 0.0230303 1.48876C0.000222859 1.41835 -0.00575248 1.34356 0.00558612 1.27041C0.0169247 1.19726 0.0452602 1.12781 0.088307 1.06765C0.131354 1.00749 0.187908 0.958309 0.253407 0.924073C0.318907 0.889836 0.39152 0.871502 0.46539 0.870549V0.870549Z" fill="#605DFF" fill-opacity="0.69"/>
</svg>
