<svg width="16" height="14" viewBox="0 0 16 14" fill="none" xmlns="http://www.w3.org/2000/svg">
<path d="M0 12.7144C0 13.1873 0.242535 13.5713 0.543387 13.5713H5.90303C6.03291 13.5713 6.1522 13.5002 6.24496 13.3809C6.36826 13.224 6.44643 12.9833 6.44643 12.7144V12.2854C6.44643 11.8125 6.20391 11.4285 5.90303 11.4285H0.543387C0.385673 11.4285 0.243865 11.5331 0.144461 11.7016C0.0887978 11.7947 0.0477104 11.9077 0.0238586 12.0333C0.0079529 12.1128 0 12.1975 0 12.2854V12.7144Z" fill="black"/>
<path d="M0.343262 7.79657C0.291575 7.76411 0.243865 7.72018 0.201454 7.66575C0.0781918 7.50878 0 7.26921 0 7.00028V6.57128C0 6.09836 0.242535 5.71436 0.543386 5.71436H8.9566C9.25748 5.71436 9.5 6.09836 9.5 6.57128V7.00028C9.5 7.47321 9.25748 7.85721 8.9566 7.85721H0.543386C0.473148 7.85721 0.405555 7.83525 0.343262 7.79657Z" fill="black"/>
<path d="M0.0503635 1.64481C0.0185521 1.53599 0 1.41462 0 1.28593V0.856928C0 0.583843 0.0808449 0.34005 0.206754 0.183107C0.299528 0.0680144 0.416154 0 0.543386 0H15.0637C15.3646 0 15.6071 0.384 15.6071 0.856928V1.28593C15.6071 1.75886 15.3646 2.14286 15.0637 2.14286H0.543386C0.32471 2.14286 0.136508 1.93883 0.0503635 1.64481Z" fill="black"/>
</svg>
