<svg width="18" height="11" viewBox="0 0 18 11" fill="none" xmlns="http://www.w3.org/2000/svg">
<path d="M17.9596 0.732823C17.9596 0.829022 17.9422 0.924288 17.9084 1.01318C17.8746 1.10207 17.825 1.18284 17.7624 1.25089L9.45634 10.2787C9.32998 10.416 9.15862 10.4932 8.97994 10.4932C8.80127 10.4932 8.62991 10.416 8.50355 10.2787L0.197488 1.25089C0.134898 1.18289 0.085242 1.10215 0.0513569 1.01329C0.0174717 0.924433 2.04553e-05 0.829188 -4.07909e-07 0.732997C-2.12711e-05 0.636805 0.0173887 0.541552 0.0512353 0.452675C0.085082 0.363797 0.134703 0.283034 0.197264 0.215001C0.259825 0.146968 0.334102 0.0929953 0.415853 0.0561636C0.497605 0.0193319 0.58523 0.000362053 0.673726 0.000339381C0.762222 0.000316709 0.849856 0.0192411 0.931623 0.056031C1.01339 0.0928208 1.08769 0.146757 1.15028 0.214758L8.97972 8.72501L16.8092 0.214757C16.9034 0.112259 17.0235 0.0424491 17.1542 0.014161C17.285 -0.0141272 17.4205 0.00037688 17.5437 0.0558395C17.6668 0.111302 17.7721 0.205231 17.8461 0.325738C17.9202 0.446245 17.9597 0.587915 17.9596 0.732823V0.732823Z" fill="#464646"/>
</svg>
