<svg width="1728" height="983" viewBox="0 0 1728 983" fill="none" xmlns="http://www.w3.org/2000/svg">
<rect width="1728" height="983" fill="#F6F6F6"/>
<path d="M1490.52 863.736L1586.84 792.219L1598.01 795.039L1501.69 866.556L1490.52 863.736ZM1545.53 878.281C1540.23 876.944 1536.42 874.406 1534.09 870.666C1531.87 866.868 1531.68 862.486 1533.5 857.521L1536.38 849.714C1538.21 844.749 1541.3 841.243 1545.68 839.196C1550.16 837.089 1555.05 836.704 1560.34 838.041C1565.64 839.378 1569.44 841.957 1571.74 845.776C1574.07 849.515 1574.32 853.867 1572.49 858.832L1569.62 866.64C1567.79 871.605 1564.63 875.141 1560.15 877.247C1555.7 879.273 1550.82 879.618 1545.53 878.281ZM1548.98 868.912C1553.69 870.102 1556.89 868.416 1558.57 863.851L1561.45 856.043C1563.16 851.399 1561.65 848.481 1556.94 847.29C1552.22 846.1 1549.01 847.827 1547.3 852.471L1544.42 860.279C1542.74 864.843 1544.26 867.721 1548.98 868.912ZM1528.19 820.734C1522.98 819.418 1519.17 816.88 1516.75 813.119C1514.42 809.38 1514.19 804.988 1516.04 799.943L1518.92 792.135C1520.77 787.09 1523.93 783.555 1528.38 781.528C1532.92 779.523 1537.79 779.178 1543.01 780.494C1548.22 781.81 1551.99 784.338 1554.32 788.077C1556.65 791.817 1556.89 796.209 1555.03 801.254L1552.16 809.062C1550.3 814.106 1547.14 817.642 1542.69 819.668C1538.24 821.695 1533.4 822.05 1528.19 820.734ZM1531.6 811.485C1536.31 812.675 1539.53 810.949 1541.24 806.304L1544.11 798.496C1545.82 793.852 1544.32 790.934 1539.6 789.743C1537.29 789.158 1535.3 789.27 1533.65 790.078C1532.08 790.906 1530.85 792.522 1529.96 794.924L1527.09 802.732C1526.2 805.134 1526.13 807.042 1526.88 808.456C1527.71 809.89 1529.28 810.9 1531.6 811.485Z" fill="white"/>
<path d="M787.224 718.446L683.082 646.664L671.786 648.924L775.928 720.706L787.224 718.446ZM731.64 730.2C736.996 729.128 740.741 726.857 742.877 723.385C744.894 719.852 744.787 715.686 742.558 710.888L739.052 703.343C736.822 698.545 733.387 695.088 728.745 692.972C723.984 690.795 718.925 690.242 713.57 691.313C708.215 692.384 704.487 694.695 702.387 698.244C700.251 701.717 700.298 705.852 702.527 710.65L706.033 718.195C708.263 722.993 711.758 726.48 716.52 728.657C721.245 730.757 726.285 731.271 731.64 730.2ZM727.433 721.146C722.664 722.1 719.254 720.371 717.204 715.96L713.698 708.415C711.612 703.927 712.954 701.205 717.724 700.251C722.493 699.297 725.921 701.064 728.006 705.553L731.513 713.098C733.562 717.509 732.203 720.191 727.433 721.146ZM745.44 676.057C750.712 675.003 754.457 672.731 756.677 669.242C758.813 665.77 758.749 661.596 756.483 656.721L752.977 649.175C750.711 644.3 747.216 640.813 742.491 638.713C737.682 636.63 732.642 636.116 727.37 637.17C722.098 638.225 718.395 640.488 716.258 643.961C714.122 647.433 714.187 651.606 716.453 656.482L719.959 664.027C722.224 668.902 725.72 672.39 730.445 674.489C735.17 676.589 740.169 677.112 745.44 676.057ZM741.287 667.119C736.517 668.073 733.09 666.306 731.004 661.817L727.498 654.272C725.412 649.784 726.754 647.063 731.523 646.109C733.866 645.64 735.917 645.822 737.676 646.654C739.351 647.503 740.727 649.088 741.806 651.41L745.312 658.955C746.391 661.277 746.597 663.096 745.929 664.414C745.177 665.749 743.63 666.65 741.287 667.119Z" fill="white"/>
<path d="M1330.57 339.682L1251.68 425.783L1240.22 424.665L1319.11 338.564L1330.57 339.682ZM1273.97 333.521C1279.41 334.051 1283.65 336.006 1286.7 339.387C1289.65 342.845 1290.76 347.192 1290.01 352.43L1288.84 360.667C1288.1 365.905 1285.81 369.879 1281.98 372.59C1278.05 375.376 1273.37 376.504 1267.94 375.974C1262.5 375.444 1258.26 373.447 1255.23 369.981C1252.18 366.6 1251.02 362.291 1251.77 357.053L1252.94 348.816C1253.68 343.578 1256.02 339.565 1259.95 336.779C1263.86 334.077 1268.54 332.991 1273.97 333.521ZM1272.57 343.406C1267.72 342.934 1264.96 345.105 1264.28 349.921L1263.11 358.158C1262.41 363.058 1264.48 365.744 1269.32 366.216C1274.16 366.688 1276.93 364.474 1277.63 359.574L1278.8 351.337C1279.48 346.521 1277.41 343.878 1272.57 343.406ZM1302.85 388.373C1308.21 388.894 1312.45 390.85 1315.58 394.239C1318.63 397.62 1319.78 401.972 1319.02 407.294L1317.85 415.531C1317.09 420.854 1314.76 424.866 1310.84 427.568C1306.84 430.261 1302.17 431.347 1296.82 430.826C1291.47 430.304 1287.27 428.353 1284.22 424.972C1281.17 421.591 1280.02 417.239 1280.78 411.917L1281.95 403.68C1282.71 398.357 1285.04 394.345 1288.96 391.643C1292.87 388.941 1297.5 387.851 1302.85 388.373ZM1301.47 398.13C1296.63 397.658 1293.86 399.873 1293.16 404.773L1291.99 413.01C1291.29 417.91 1293.37 420.596 1298.21 421.068C1300.58 421.3 1302.49 420.886 1303.94 419.828C1305.29 418.761 1306.15 416.96 1306.51 414.426L1307.68 406.189C1308.04 403.654 1307.71 401.737 1306.69 400.439C1305.59 399.132 1303.85 398.362 1301.47 398.13Z" fill="white"/>
<path d="M160.263 406.503L242.618 493.387L254.104 492.5L171.749 405.615L160.263 406.503ZM216.941 401.486C211.496 401.906 207.3 403.763 204.355 407.056C201.509 410.427 200.554 414.716 201.488 419.923L202.957 428.113C203.892 433.32 206.332 437.304 210.278 440.065C214.324 442.903 219.069 444.112 224.514 443.692C229.959 443.271 234.147 441.372 237.078 437.995C240.024 434.702 241.029 430.451 240.095 425.244L238.625 417.055C237.691 411.847 235.201 407.824 231.155 404.986C227.124 402.232 222.386 401.065 216.941 401.486ZM218.704 411.313C223.554 410.938 226.408 413.145 227.267 417.932L228.737 426.121C229.611 430.993 227.623 433.616 222.774 433.991C217.924 434.365 215.062 432.117 214.188 427.245L212.719 419.056C211.859 414.268 213.855 411.687 218.704 411.313ZM189.853 455.31C184.493 455.725 180.297 457.581 177.267 460.881C174.321 464.174 173.323 468.467 174.272 473.758L175.742 481.947C176.691 487.239 179.182 491.262 183.212 494.016C187.328 496.764 192.066 497.93 197.426 497.516C202.786 497.102 206.939 495.249 209.885 491.956C212.831 488.662 213.829 484.37 212.879 479.079L211.41 470.889C210.46 465.598 207.97 461.575 203.939 458.821C199.908 456.067 195.213 454.896 189.853 455.31ZM191.594 465.012C196.443 464.637 199.305 466.885 200.179 471.757L201.649 479.946C202.523 484.818 200.535 487.441 195.686 487.815C193.303 487.999 191.369 487.553 189.881 486.475C188.479 485.391 187.552 483.59 187.1 481.07L185.631 472.881C185.178 470.361 185.442 468.467 186.422 467.199C187.488 465.925 189.211 465.196 191.594 465.012Z" fill="white"/>
<path d="M1145.32 94.9522L1227.67 181.836L1239.16 180.949L1156.8 94.065L1145.32 94.9522ZM1202 89.9354C1196.55 90.356 1192.36 92.2129 1189.41 95.5061C1186.56 98.8767 1185.61 103.166 1186.54 108.373L1188.01 116.562C1188.95 121.77 1191.39 125.754 1195.33 128.515C1199.38 131.353 1204.12 132.562 1209.57 132.141C1215.01 131.721 1219.2 129.822 1222.13 126.445C1225.08 123.152 1226.08 118.901 1225.15 113.694L1223.68 105.504C1222.75 100.297 1220.26 96.2741 1216.21 93.4359C1212.18 90.6816 1207.44 89.5148 1202 89.9354ZM1203.76 99.7625C1208.61 99.3879 1211.46 101.594 1212.32 106.382L1213.79 114.571C1214.67 119.443 1212.68 122.066 1207.83 122.44C1202.98 122.815 1200.12 120.566 1199.24 115.695L1197.77 107.506C1196.91 102.718 1198.91 100.137 1203.76 99.7625ZM1174.91 143.76C1169.55 144.174 1165.35 146.031 1162.32 149.331C1159.38 152.624 1158.38 156.916 1159.33 162.208L1160.8 170.397C1161.75 175.688 1164.24 179.711 1168.27 182.466C1172.38 185.213 1177.12 186.38 1182.48 185.966C1187.84 185.552 1191.99 183.698 1194.94 180.405C1197.89 177.112 1198.88 172.82 1197.93 167.528L1196.46 159.339C1195.51 154.048 1193.02 150.025 1188.99 147.27C1184.96 144.516 1180.27 143.346 1174.91 143.76ZM1176.65 153.461C1181.5 153.087 1184.36 155.335 1185.23 160.207L1186.7 168.396C1187.58 173.267 1185.59 175.89 1180.74 176.265C1178.36 176.449 1176.42 176.002 1174.94 174.925C1173.53 173.841 1172.61 172.039 1172.15 169.52L1170.69 161.33C1170.23 158.811 1170.5 156.917 1171.48 155.649C1172.54 154.374 1174.27 153.645 1176.65 153.461Z" fill="white"/>
<path d="M1675.47 622.747L1690.82 543.988L1698.99 541.172L1683.64 619.931L1675.47 622.747ZM1716.07 609.252C1712.2 610.587 1708.51 610.653 1704.99 609.45C1701.51 608.168 1698.87 605.755 1697.09 602.21L1694.29 596.635C1692.51 593.089 1692.31 589.87 1693.69 586.977C1695.11 584.006 1697.76 581.853 1701.63 580.518C1705.5 579.183 1709.21 579.146 1712.75 580.406C1716.27 581.61 1718.92 583.984 1720.7 587.529L1723.5 593.104C1725.28 596.65 1725.47 599.908 1724.05 602.879C1722.6 605.792 1719.94 607.917 1716.07 609.252ZM1712.71 602.562C1716.16 601.373 1717.06 599.148 1715.42 595.889L1712.62 590.314C1710.95 586.997 1708.4 585.934 1704.95 587.123C1701.5 588.312 1700.61 590.564 1702.28 593.881L1705.08 599.456C1706.72 602.716 1709.26 603.751 1712.71 602.562ZM1672.83 583.401C1669.02 584.715 1665.33 584.781 1661.75 583.598C1658.24 582.395 1655.57 579.992 1653.76 576.39L1650.96 570.814C1649.15 567.212 1648.97 563.954 1650.41 561.04C1651.92 558.106 1654.58 555.981 1658.39 554.667C1662.2 553.353 1665.87 553.297 1669.38 554.501C1672.9 555.704 1675.56 558.107 1677.37 561.709L1680.17 567.284C1681.98 570.887 1682.17 574.145 1680.72 577.059C1679.28 579.972 1676.65 582.086 1672.83 583.401ZM1669.51 576.796C1672.96 575.607 1673.85 573.354 1672.19 570.038L1669.38 564.463C1667.72 561.146 1665.16 560.082 1661.71 561.271C1660.02 561.855 1658.92 562.704 1658.41 563.818C1657.97 564.91 1658.18 566.314 1659.04 568.03L1661.84 573.605C1662.7 575.32 1663.76 576.432 1665.01 576.941C1666.32 577.428 1667.82 577.38 1669.51 576.796Z" fill="white"/>
<path d="M178.714 862.975L168.475 790.75L160.14 788.473L170.379 860.699L178.714 862.975ZM137.246 852.124C141.198 853.204 145.056 853.116 148.822 851.862C152.56 850.537 155.492 848.2 157.618 844.849L160.961 839.58C163.087 836.23 163.532 833.245 162.297 830.625C161.035 827.934 158.428 826.049 154.476 824.969C150.525 823.89 146.65 824.005 142.85 825.313C139.084 826.567 136.138 828.869 134.012 832.219L130.669 837.488C128.543 840.839 128.112 843.859 129.374 846.55C130.671 849.187 133.295 851.045 137.246 852.124ZM141.258 845.802C137.739 844.84 136.957 842.82 138.911 839.739L142.254 834.471C144.243 831.336 146.997 830.25 150.516 831.211C154.035 832.172 154.8 834.22 152.812 837.354L149.468 842.623C147.514 845.703 144.777 846.763 141.258 845.802ZM184.377 826.479C188.267 827.541 192.125 827.454 195.953 826.217C199.718 824.963 202.681 822.634 204.841 819.229L208.185 813.96C210.345 810.556 210.777 807.535 209.48 804.898C208.121 802.245 205.497 800.387 201.607 799.324C197.718 798.262 193.89 798.358 190.125 799.612C186.359 800.866 183.396 803.195 181.236 806.599L177.893 811.868C175.733 815.273 175.301 818.293 176.598 820.93C177.895 823.567 180.488 825.417 184.377 826.479ZM188.338 820.238C184.819 819.276 184.053 817.229 186.042 814.094L189.385 808.825C191.374 805.691 194.128 804.605 197.647 805.566C199.376 806.038 200.463 806.779 200.909 807.788C201.293 808.781 200.971 810.088 199.943 811.709L196.599 816.978C195.571 818.599 194.384 819.67 193.04 820.19C191.634 820.694 190.066 820.71 188.338 820.238Z" fill="white"/>
<path d="M1598.25 288.015L1585.95 366.912L1577.87 369.985L1590.17 291.088L1598.25 288.015ZM1558.09 302.788C1561.92 301.332 1565.62 301.144 1569.19 302.226C1572.73 303.386 1575.46 305.701 1577.39 309.171L1580.41 314.627C1582.34 318.097 1582.66 321.294 1581.39 324.219C1580.08 327.223 1577.52 329.453 1573.69 330.91C1569.86 332.367 1566.15 332.526 1562.55 331.389C1558.98 330.307 1556.23 328.032 1554.3 324.562L1551.28 319.105C1549.35 315.636 1549.04 312.399 1550.34 309.395C1551.68 306.447 1554.26 304.245 1558.09 302.788ZM1561.72 309.336C1558.31 310.633 1557.49 312.877 1559.26 316.067L1562.29 321.523C1564.09 324.769 1566.69 325.744 1570.1 324.446C1573.51 323.149 1574.32 320.877 1572.52 317.631L1569.49 312.175C1567.72 308.985 1565.13 308.039 1561.72 309.336ZM1602.43 327.09C1606.2 325.656 1609.9 325.469 1613.53 326.528C1617.1 327.609 1619.86 329.913 1621.82 333.438L1624.85 338.895C1626.8 342.421 1627.11 345.657 1625.78 348.605C1624.38 351.576 1621.8 353.778 1618.03 355.212C1614.27 356.646 1610.6 356.822 1607.03 355.741C1603.46 354.659 1600.69 352.355 1598.74 348.83L1595.71 343.373C1593.75 339.848 1593.44 336.611 1594.78 333.663C1596.11 330.715 1598.66 328.524 1602.43 327.09ZM1606.02 333.554C1602.61 334.851 1601.8 337.123 1603.61 340.369L1606.63 345.825C1608.43 349.071 1611.04 350.046 1614.45 348.748C1616.12 348.111 1617.19 347.23 1617.65 346.105C1618.06 345.003 1617.79 343.612 1616.86 341.933L1613.83 336.477C1612.9 334.798 1611.8 333.726 1610.53 333.261C1609.2 332.819 1607.69 332.917 1606.02 333.554Z" fill="white"/>
<path d="M112.335 215.784L119.563 287.486L127.836 289.98L120.607 218.278L112.335 215.784ZM153.512 227.721C149.59 226.539 145.712 226.513 141.879 227.643C138.069 228.844 135.026 231.069 132.75 234.319L129.171 239.431C126.895 242.681 126.321 245.619 127.451 248.245C128.605 250.942 131.143 252.882 135.064 254.064C138.986 255.247 142.882 255.247 146.753 254.064C150.587 252.934 153.642 250.744 155.918 247.494L159.497 242.383C161.773 239.132 162.335 236.159 161.181 233.462C159.99 230.817 157.434 228.904 153.512 227.721ZM149.217 233.855C152.709 234.908 153.41 236.928 151.317 239.917L147.738 245.028C145.608 248.069 142.797 249.062 139.305 248.009C135.812 246.956 135.13 244.91 137.259 241.869L140.839 236.758C142.931 233.77 145.724 232.802 149.217 233.855ZM105.106 251.7C101.246 250.536 97.3677 250.51 93.4725 251.621C89.6385 252.751 86.5652 254.967 84.2523 258.27L80.6729 263.381C78.3601 266.684 77.799 269.658 78.9897 272.302C80.2417 274.965 82.7979 276.879 86.6583 278.043C90.5187 279.206 94.3659 279.223 98.1998 278.093C102.034 276.963 105.107 274.747 107.42 271.444L110.999 266.333C113.312 263.03 113.873 260.057 112.683 257.412C111.492 254.768 108.966 252.863 105.106 251.7ZM100.866 257.755C104.358 258.807 105.04 260.854 102.911 263.895L99.3315 269.006C97.2023 272.047 94.3912 273.041 90.8985 271.988C89.1828 271.47 88.1223 270.706 87.7171 269.695C87.3732 268.703 87.7519 267.42 88.8533 265.847L92.4327 260.736C93.534 259.163 94.7706 258.139 96.1425 257.664C97.5756 257.207 99.15 257.237 100.866 257.755Z" fill="white"/>
<path d="M963.579 14.311L979.34 85.9546L987.812 87.6499L972.051 16.0063L963.579 14.311ZM1005.69 22.269C1001.68 21.4653 997.843 21.824 994.191 23.345C990.572 24.9351 987.833 27.4833 985.976 30.9895L983.054 36.5033C981.196 40.0095 980.983 43.0316 982.414 45.5698C983.879 48.1771 986.619 49.8825 990.635 50.6862C994.652 51.4899 998.501 51.103 1002.18 49.5254C1005.83 48.0044 1008.59 45.4908 1010.45 41.9846L1013.37 36.4708C1015.23 32.9646 1015.42 29.9079 1013.96 27.3006C1012.46 24.7499 1009.71 23.0727 1005.69 22.269ZM1002.19 28.8855C1005.76 29.6013 1006.7 31.5709 1004.99 34.7944L1002.07 40.3082C1000.33 43.5882 997.674 44.8703 994.096 44.1545C990.519 43.4387 989.6 41.4408 991.338 38.1608L994.259 32.6471C995.967 29.4236 998.61 28.1698 1002.19 28.8855ZM960.755 51.2747C956.801 50.4836 952.967 50.8422 949.253 52.3507C945.601 53.8717 942.831 56.4136 940.944 59.9763L938.022 65.4901C936.134 69.0529 935.937 72.1096 937.432 74.6603C938.989 77.2236 941.744 78.9008 945.698 79.6919C949.651 80.483 953.454 80.1181 957.106 78.5971C960.757 77.0761 963.527 74.5342 965.415 70.9714L968.337 65.4576C970.224 61.8949 970.421 58.8381 968.927 56.2874C967.433 53.7367 964.709 52.0658 960.755 51.2747ZM957.294 57.8064C960.871 58.5222 961.791 60.5201 960.053 63.8001L957.131 69.3138C955.393 72.5938 952.736 73.876 949.159 73.1602C947.401 72.8086 946.262 72.1427 945.74 71.1626C945.281 70.1951 945.501 68.8631 946.4 67.1665L949.322 61.6527C950.22 59.9562 951.319 58.7999 952.617 58.184C953.978 57.5807 955.537 57.4548 957.294 57.8064Z" fill="white"/>
<path d="M1357.83 725.946L1344.19 673.73L1338.65 672.135L1352.29 724.351L1357.83 725.946ZM1330.34 718.357C1332.96 719.113 1335.41 719.025 1337.69 718.093C1339.94 717.11 1341.58 715.399 1342.6 712.96L1344.21 709.125C1345.24 706.686 1345.23 704.522 1344.18 702.633C1343.11 700.694 1341.26 699.346 1338.64 698.59C1336.02 697.834 1333.56 697.942 1331.27 698.913C1328.99 699.845 1327.34 701.531 1326.32 703.97L1324.71 707.805C1323.68 710.244 1323.7 712.433 1324.77 714.373C1325.86 716.273 1327.71 717.602 1330.34 718.357ZM1332.27 713.755C1329.93 713.082 1329.24 711.624 1330.18 709.382L1331.79 705.546C1332.75 703.265 1334.4 702.46 1336.73 703.134C1339.07 703.807 1339.76 705.284 1338.8 707.566L1337.19 711.401C1336.25 713.643 1334.61 714.428 1332.27 713.755ZM1357.84 699.491C1360.42 700.235 1362.87 700.147 1365.19 699.227C1367.47 698.295 1369.13 696.59 1370.17 694.111L1371.78 690.276C1372.82 687.798 1372.8 685.608 1371.71 683.708C1370.58 681.796 1368.73 680.468 1366.14 679.724C1363.56 678.98 1361.13 679.073 1358.86 680.005C1356.58 680.937 1354.92 682.642 1353.88 685.121L1352.27 688.956C1351.23 691.434 1351.25 693.624 1352.34 695.524C1353.42 697.425 1355.26 698.747 1357.84 699.491ZM1359.75 694.947C1357.41 694.274 1356.72 692.797 1357.68 690.515L1359.29 686.68C1360.25 684.398 1361.9 683.594 1364.24 684.267C1365.38 684.598 1366.15 685.127 1366.53 685.855C1366.88 686.571 1366.8 687.519 1366.3 688.699L1364.69 692.535C1364.2 693.715 1363.55 694.498 1362.74 694.883C1361.9 695.256 1360.9 695.278 1359.75 694.947Z" fill="white"/>
<path d="M402.764 753.335L413.077 704.709L418.692 703.427L408.379 752.053L402.764 753.335ZM430.68 747.281C428.017 747.888 425.474 747.708 423.049 746.74C420.646 745.725 418.824 744.049 417.585 741.712L415.637 738.036C414.398 735.699 414.251 733.662 415.195 731.925C416.161 730.141 417.975 728.946 420.637 728.338C423.3 727.73 425.853 727.929 428.298 728.935C430.723 729.903 432.555 731.555 433.794 733.893L435.743 737.568C436.982 739.905 437.118 741.966 436.152 743.75C435.166 745.496 433.342 746.673 430.68 747.281ZM428.342 742.87C430.713 742.329 431.328 740.984 430.189 738.835L428.241 735.16C427.082 732.974 425.317 732.151 422.946 732.692C420.575 733.233 419.969 734.597 421.128 736.783L423.076 740.459C424.215 742.608 425.97 743.411 428.342 742.87ZM400.819 728.424C398.198 729.022 395.654 728.842 393.188 727.883C390.763 726.916 388.921 725.244 387.662 722.869L385.713 719.194C384.454 716.819 384.318 714.758 385.304 713.012C386.332 711.256 388.156 710.079 390.776 709.481C393.397 708.883 395.92 709.068 398.345 710.036C400.77 711.004 402.612 712.675 403.871 715.05L405.819 718.726C407.078 721.1 407.215 723.161 406.229 724.907C405.243 726.654 403.439 727.826 400.819 728.424ZM398.51 724.07C400.881 723.529 401.487 722.165 400.328 719.979L398.38 716.303C397.221 714.117 395.456 713.294 393.085 713.835C391.92 714.101 391.165 714.569 390.821 715.239C390.519 715.9 390.667 716.796 391.267 717.927L393.215 721.602C393.815 722.733 394.546 723.496 395.408 723.891C396.311 724.276 397.346 724.336 398.51 724.07Z" fill="white"/>
<path d="M1241.3 982.079L1251.62 933.453L1257.23 932.171L1246.92 980.797L1241.3 982.079ZM1269.22 976.025C1266.56 976.632 1264.01 976.452 1261.59 975.484C1259.19 974.469 1257.37 972.793 1256.13 970.456L1254.18 966.781C1252.94 964.443 1252.79 962.406 1253.74 960.67C1254.7 958.886 1256.52 957.69 1259.18 957.082C1261.84 956.475 1264.39 956.674 1266.84 957.679C1269.26 958.647 1271.1 960.3 1272.34 962.637L1274.28 966.312C1275.52 968.649 1275.66 970.71 1274.69 972.494C1273.71 974.24 1271.88 975.417 1269.22 976.025ZM1266.88 971.614C1269.25 971.073 1269.87 969.728 1268.73 967.58L1266.78 963.904C1265.62 961.718 1263.86 960.895 1261.49 961.436C1259.12 961.977 1258.51 963.341 1259.67 965.527L1261.62 969.203C1262.76 971.352 1264.51 972.155 1266.88 971.614ZM1239.36 957.168C1236.74 957.766 1234.2 957.586 1231.73 956.628C1229.3 955.66 1227.46 953.988 1226.2 951.613L1224.25 947.938C1223 945.563 1222.86 943.502 1223.84 941.756C1224.87 940 1226.7 938.823 1229.32 938.225C1231.94 937.627 1234.46 937.812 1236.89 938.78C1239.31 939.748 1241.15 941.419 1242.41 943.794L1244.36 947.47C1245.62 949.845 1245.76 951.905 1244.77 953.652C1243.78 955.398 1241.98 956.57 1239.36 957.168ZM1237.05 952.814C1239.42 952.273 1240.03 950.909 1238.87 948.723L1236.92 945.047C1235.76 942.861 1234 942.038 1231.63 942.579C1230.46 942.845 1229.71 943.313 1229.36 943.983C1229.06 944.644 1229.21 945.54 1229.81 946.671L1231.76 950.346C1232.36 951.477 1233.09 952.24 1233.95 952.635C1234.85 953.02 1235.89 953.08 1237.05 952.814Z" fill="white"/>
<path d="M463.02 363.74L467.558 315.08L473.025 313.267L468.488 361.927L463.02 363.74ZM490.236 355.037C487.644 355.896 485.077 355.972 482.536 355.265C480.01 354.509 477.988 353.048 476.47 350.882L474.083 347.475C472.566 345.308 472.176 343.327 472.915 341.532C473.669 339.688 475.342 338.337 477.934 337.477C480.526 336.617 483.105 336.559 485.671 337.301C488.213 338.008 490.243 339.445 491.761 341.612L494.148 345.019C495.665 347.185 496.047 349.191 495.292 351.034C494.513 352.843 492.828 354.177 490.236 355.037ZM487.372 350.948C489.68 350.183 490.137 348.804 488.741 346.812L486.354 343.405C484.934 341.378 483.07 340.748 480.762 341.513C478.453 342.279 478.009 343.675 479.429 345.702L481.816 349.109C483.212 351.101 485.063 351.714 487.372 350.948ZM458.112 339.53C455.56 340.376 452.994 340.452 450.411 339.758C447.87 339.051 445.828 337.597 444.285 335.395L441.898 331.988C440.356 329.787 439.974 327.781 440.753 325.973C441.573 324.151 443.258 322.816 445.81 321.97C448.361 321.124 450.908 321.055 453.449 321.762C455.991 322.469 458.033 323.924 459.575 326.125L461.962 329.532C463.505 331.734 463.886 333.739 463.107 335.547C462.328 337.356 460.663 338.684 458.112 339.53ZM455.284 335.494C457.592 334.728 458.037 333.332 456.617 331.305L454.23 327.898C452.81 325.871 450.946 325.241 448.637 326.006C447.503 326.382 446.804 326.916 446.539 327.607C446.315 328.284 446.57 329.147 447.305 330.195L449.692 333.602C450.426 334.65 451.248 335.325 452.158 335.626C453.108 335.914 454.15 335.87 455.284 335.494Z" fill="white"/>
<path d="M1023.97 609.682L1055.73 656.996L1061.49 657.103L1029.73 609.789L1023.97 609.682ZM1052.45 609.889C1049.72 609.839 1047.46 610.565 1045.67 612.068C1043.92 613.615 1043.01 615.71 1042.94 618.355L1042.83 622.513C1042.76 625.157 1043.55 627.263 1045.22 628.83C1046.93 630.441 1049.14 631.271 1051.87 631.322C1054.6 631.372 1056.87 630.625 1058.66 629.079C1060.45 627.576 1061.38 625.502 1061.45 622.858L1061.56 618.699C1061.63 616.055 1060.82 613.927 1059.11 612.317C1057.4 610.749 1055.18 609.94 1052.45 609.889ZM1052.32 614.88C1054.75 614.925 1055.93 616.163 1055.87 618.594L1055.75 622.752C1055.69 625.226 1054.44 626.44 1052.01 626.395C1049.58 626.35 1048.39 625.091 1048.46 622.617L1048.57 618.459C1048.64 616.028 1049.89 614.835 1052.32 614.88ZM1033.58 635.464C1030.89 635.414 1028.63 636.14 1026.8 637.643C1025.01 639.146 1024.08 641.241 1024.01 643.928L1023.89 648.086C1023.82 650.773 1024.64 652.901 1026.35 654.468C1028.1 656.037 1030.32 656.846 1033 656.896C1035.69 656.946 1037.93 656.219 1039.72 654.716C1041.51 653.213 1042.44 651.118 1042.51 648.431L1042.63 644.272C1042.7 641.585 1041.88 639.458 1040.17 637.89C1038.47 636.322 1036.27 635.513 1033.58 635.464ZM1033.45 640.39C1035.88 640.435 1037.06 641.694 1037 644.168L1036.88 648.327C1036.82 650.8 1035.57 652.015 1033.14 651.97C1031.94 651.948 1031.03 651.632 1030.41 651.023C1029.83 650.415 1029.55 649.471 1029.59 648.192L1029.7 644.033C1029.73 642.754 1030.06 641.821 1030.67 641.235C1031.33 640.649 1032.25 640.368 1033.45 640.39Z" fill="white"/>
<path d="M630.951 478.515L599.521 525.692L593.761 525.777L625.192 478.6L630.951 478.515ZM602.463 478.613C605.194 478.573 607.46 479.308 609.261 480.817C611.021 482.37 611.946 484.468 612.036 487.112L612.178 491.27C612.268 493.913 611.486 496.015 609.832 497.575C608.136 499.179 605.923 500.001 603.193 500.041C600.463 500.081 598.196 499.325 596.393 497.772C594.592 496.263 593.646 494.186 593.556 491.542L593.414 487.385C593.324 484.741 594.127 482.618 595.822 481.014C597.519 479.453 599.733 478.653 602.463 478.613ZM602.633 483.602C600.201 483.638 599.027 484.871 599.11 487.301L599.251 491.459C599.336 493.932 600.594 495.151 603.025 495.115C605.457 495.08 606.631 493.825 606.547 491.352L606.405 487.194C606.322 484.764 605.065 483.566 602.633 483.602ZM621.519 504.252C624.207 504.212 626.473 504.947 628.317 506.456C630.119 507.965 631.065 510.063 631.156 512.75L631.298 516.907C631.39 519.594 630.587 521.717 628.89 523.278C627.15 524.839 624.937 525.64 622.249 525.679C619.561 525.719 617.317 524.984 615.515 523.474C613.714 521.965 612.768 519.867 612.676 517.18L612.534 513.023C612.443 510.336 613.246 508.213 614.943 506.652C616.639 505.091 618.832 504.291 621.519 504.252ZM621.687 509.177C619.255 509.212 618.082 510.467 618.166 512.94L618.307 517.098C618.392 519.571 619.65 520.79 622.081 520.754C623.276 520.736 624.183 520.425 624.803 519.818C625.38 519.212 625.646 518.27 625.603 516.991L625.461 512.833C625.418 511.554 625.087 510.62 624.469 510.032C623.809 509.444 622.882 509.159 621.687 509.177Z" fill="white"/>
<path d="M258.212 54.8178L219.273 128.756L210.671 129.564L249.61 55.6255L258.212 54.8178ZM215.608 58.337C219.686 57.9541 223.202 58.7792 226.156 60.8125C229.055 62.915 230.799 65.9284 231.386 69.8527L232.311 76.0238C232.898 79.9481 232.089 83.1691 229.881 85.6871C227.619 88.2743 224.449 89.7593 220.371 90.1423C216.293 90.5252 212.773 89.6684 209.809 87.5718C206.856 85.5386 205.085 82.5598 204.497 78.6356L203.573 72.4644C202.985 68.5402 203.822 65.2845 206.084 62.6973C208.355 60.1734 211.53 58.7199 215.608 58.337ZM216.717 65.7424C213.085 66.0835 211.539 68.0579 212.079 71.6656L213.004 77.8368C213.553 81.5079 215.644 83.1729 219.276 82.8318C222.908 82.4908 224.45 80.4847 223.9 76.8136L222.975 70.6425C222.435 67.0347 220.349 65.4013 216.717 65.7424ZM248.511 94.2392C252.526 93.8623 256.041 94.6874 259.059 96.7147C262.013 98.748 263.788 101.758 264.385 105.746L265.31 111.917C265.907 115.905 265.07 119.16 262.799 121.684C260.464 124.214 257.289 125.668 253.275 126.044C249.26 126.421 245.776 125.593 242.822 123.56C239.869 121.527 238.093 118.516 237.496 114.529L236.572 108.358C235.975 104.37 236.812 101.114 239.083 98.5905C241.354 96.0666 244.497 94.6162 248.511 94.2392ZM249.606 101.55C245.974 101.891 244.433 103.897 244.983 107.568L245.907 113.739C246.457 117.41 248.548 119.075 252.18 118.734C253.964 118.566 255.268 117.995 256.091 117.019C256.85 116.049 257.087 114.615 256.803 112.716L255.879 106.545C255.594 104.646 254.94 103.295 253.915 102.493C252.827 101.697 251.39 101.382 249.606 101.55Z" fill="white"/>
<path d="M887.326 253.409L893.055 293.079L897.067 294.681L891.339 255.011L887.326 253.409ZM907.282 261.12C905.38 260.361 903.536 260.239 901.75 260.755C899.977 261.31 898.602 262.451 897.624 264.177L896.086 266.892C895.108 268.618 894.929 270.219 895.55 271.696C896.185 273.213 897.453 274.351 899.355 275.11C901.257 275.87 903.109 275.978 904.911 275.434C906.698 274.918 908.08 273.797 909.058 272.071L910.596 269.356C911.574 267.63 911.746 266.009 911.111 264.492C910.46 263.004 909.184 261.879 907.282 261.12ZM905.436 264.378C907.13 265.054 907.528 266.185 906.629 267.772L905.091 270.487C904.176 272.102 902.871 272.571 901.177 271.895C899.483 271.218 899.094 270.073 900.009 268.458L901.547 265.743C902.446 264.156 903.742 263.701 905.436 264.378ZM885.038 272.979C883.166 272.231 881.322 272.11 879.506 272.614C877.719 273.129 876.329 274.264 875.335 276.018L873.797 278.733C872.803 280.487 872.632 282.108 873.282 283.597C873.963 285.098 875.239 286.222 877.111 286.969C878.984 287.717 880.813 287.833 882.599 287.317C884.386 286.801 885.776 285.666 886.77 283.912L888.308 281.198C889.302 279.444 889.473 277.822 888.823 276.333C888.172 274.845 886.911 273.727 885.038 272.979ZM883.216 276.195C884.91 276.871 885.3 278.017 884.385 279.631L882.847 282.346C881.932 283.961 880.627 284.43 878.933 283.754C878.101 283.421 877.573 282.971 877.348 282.404C877.153 281.848 877.292 281.152 877.765 280.317L879.303 277.602C879.776 276.767 880.331 276.238 880.968 276.014C881.635 275.802 882.384 275.862 883.216 276.195Z" fill="white"/>
<path d="M910.013 460.934L952.416 445.577L953.861 441.506L911.458 456.863L910.013 460.934ZM916.924 440.75C916.239 442.68 916.238 444.394 916.92 445.893C917.645 447.369 918.973 448.333 920.905 448.786L923.943 449.496C925.875 449.949 927.616 449.703 929.166 448.759C930.757 447.792 931.896 446.344 932.581 444.414C933.266 442.484 933.251 440.766 932.537 439.259C931.854 437.761 930.547 436.785 928.615 436.333L925.577 435.622C923.646 435.17 921.884 435.427 920.292 436.394C918.732 437.368 917.609 438.82 916.924 440.75ZM920.569 441.603C921.179 439.884 922.372 439.232 924.148 439.648L927.186 440.359C928.994 440.782 929.592 441.853 928.982 443.572C928.372 445.291 927.163 445.939 925.356 445.516L922.318 444.805C920.542 444.389 919.959 443.322 920.569 441.603ZM931.293 458.026C930.618 459.926 930.617 461.641 931.289 463.17C931.972 464.669 933.295 465.648 935.258 466.107L938.296 466.818C940.259 467.277 942.021 467.02 943.581 466.046C945.153 465.042 946.275 463.59 946.95 461.69C947.624 459.79 947.62 458.091 946.937 456.592C946.254 455.093 944.931 454.114 942.968 453.655L939.93 452.944C937.967 452.484 936.206 452.742 934.645 453.716C933.084 454.689 931.967 456.126 931.293 458.026ZM934.891 458.868C935.502 457.149 936.71 456.501 938.517 456.924L941.555 457.635C943.362 458.058 943.961 459.129 943.351 460.848C943.051 461.692 942.603 462.29 942.006 462.64C941.42 462.96 940.66 463.011 939.725 462.792L936.687 462.081C935.752 461.862 935.142 461.491 934.855 460.967C934.58 460.412 934.592 459.713 934.891 458.868Z" fill="white"/>
<path d="M1462.01 162.828L1504.42 147.471L1505.86 143.4L1463.46 158.757L1462.01 162.828ZM1468.92 142.644C1468.24 144.574 1468.24 146.288 1468.92 147.787C1469.65 149.263 1470.97 150.228 1472.91 150.68L1475.94 151.39C1477.88 151.843 1479.62 151.597 1481.17 150.653C1482.76 149.686 1483.9 148.238 1484.58 146.308C1485.27 144.378 1485.25 142.66 1484.54 141.154C1483.85 139.655 1482.55 138.679 1480.62 138.227L1477.58 137.516C1475.65 137.064 1473.88 137.321 1472.29 138.288C1470.73 139.262 1469.61 140.714 1468.92 142.644ZM1472.57 143.497C1473.18 141.778 1474.37 141.126 1476.15 141.542L1479.19 142.253C1480.99 142.676 1481.59 143.747 1480.98 145.466C1480.37 147.185 1479.16 147.833 1477.36 147.41L1474.32 146.699C1472.54 146.283 1471.96 145.216 1472.57 143.497ZM1483.29 159.92C1482.62 161.82 1482.62 163.535 1483.29 165.064C1483.97 166.563 1485.3 167.542 1487.26 168.001L1490.3 168.712C1492.26 169.171 1494.02 168.914 1495.58 167.94C1497.15 166.936 1498.28 165.484 1498.95 163.584C1499.62 161.684 1499.62 159.985 1498.94 158.486C1498.25 156.987 1496.93 156.008 1494.97 155.549L1491.93 154.838C1489.97 154.378 1488.21 154.636 1486.64 155.61C1485.08 156.583 1483.97 158.02 1483.29 159.92ZM1486.89 160.762C1487.5 159.043 1488.71 158.395 1490.52 158.818L1493.56 159.529C1495.36 159.952 1495.96 161.023 1495.35 162.742C1495.05 163.586 1494.6 164.184 1494.01 164.534C1493.42 164.854 1492.66 164.905 1491.72 164.686L1488.69 163.975C1487.75 163.756 1487.14 163.385 1486.86 162.861C1486.58 162.306 1486.59 161.607 1486.89 160.762Z" fill="white"/>
<path d="M683.451 198.471L653.244 214.448L650.235 213.247L680.442 197.27L683.451 198.471ZM668.662 192.374C670.088 192.944 671.045 193.787 671.533 194.904C671.987 196.032 671.847 197.244 671.114 198.538L669.96 200.574C669.227 201.869 668.201 202.714 666.884 203.11C665.532 203.518 664.143 203.437 662.716 202.867C661.29 202.298 660.339 201.444 659.863 200.307C659.375 199.19 659.497 197.984 660.231 196.69L661.385 194.654C662.118 193.359 663.161 192.508 664.512 192.1C665.852 191.713 667.235 191.805 668.662 192.374ZM667.277 194.817C666.007 194.31 665.035 194.652 664.36 195.842L663.207 197.878C662.52 199.089 662.812 199.948 664.083 200.455C665.353 200.963 666.332 200.611 667.018 199.4L668.172 197.364C668.846 196.173 668.548 195.325 667.277 194.817ZM670.969 208.851C672.374 209.411 673.331 210.254 673.841 211.38C674.329 212.496 674.2 213.712 673.455 215.028L672.301 217.064C671.556 218.379 670.513 219.23 669.173 219.617C667.811 219.995 666.428 219.904 665.024 219.343C663.62 218.783 662.674 217.944 662.186 216.827C661.698 215.711 661.827 214.495 662.572 213.179L663.726 211.143C664.471 209.828 665.513 208.977 666.853 208.59C668.193 208.203 669.565 208.29 670.969 208.851ZM669.603 211.262C668.332 210.755 667.354 211.107 666.668 212.318L665.514 214.354C664.828 215.565 665.12 216.424 666.39 216.932C667.015 217.181 667.577 217.226 668.077 217.067C668.554 216.899 668.971 216.502 669.326 215.876L670.479 213.84C670.834 213.213 670.938 212.692 670.792 212.275C670.623 211.849 670.227 211.512 669.603 211.262Z" fill="white"/>
<path d="M621.082 852.728L590.875 868.705L587.866 867.503L618.073 851.527L621.082 852.728ZM606.293 846.631C607.719 847.201 608.676 848.044 609.164 849.16C609.618 850.289 609.478 851.501 608.745 852.795L607.591 854.831C606.857 856.126 605.832 856.971 604.514 857.367C603.163 857.774 601.774 857.693 600.347 857.124C598.921 856.554 597.969 855.701 597.493 854.563C597.005 853.447 597.128 852.241 597.862 850.947L599.015 848.911C599.749 847.616 600.792 846.765 602.143 846.357C603.483 845.97 604.866 846.062 606.293 846.631ZM604.908 849.074C603.638 848.567 602.665 848.909 601.991 850.099L600.837 852.135C600.151 853.346 600.443 854.205 601.714 854.712C602.984 855.219 603.963 854.867 604.649 853.656L605.802 851.62C606.477 850.43 606.179 849.582 604.908 849.074ZM608.6 863.107C610.004 863.668 610.962 864.511 611.472 865.637C611.96 866.753 611.831 867.969 611.086 869.285L609.932 871.321C609.187 872.636 608.144 873.487 606.804 873.874C605.442 874.252 604.059 874.161 602.655 873.6C601.251 873.039 600.305 872.201 599.817 871.084C599.329 869.968 599.457 868.752 600.203 867.436L601.356 865.4C602.102 864.085 603.144 863.234 604.484 862.847C605.824 862.46 607.196 862.547 608.6 863.107ZM607.234 865.519C605.963 865.012 604.985 865.364 604.299 866.575L603.145 868.611C602.459 869.822 602.751 870.681 604.021 871.188C604.645 871.438 605.207 871.483 605.707 871.324C606.185 871.156 606.601 870.759 606.956 870.133L608.11 868.097C608.465 867.47 608.569 866.949 608.423 866.532C608.254 866.106 607.858 865.768 607.234 865.519Z" fill="white"/>
<path d="M1470.69 565.732L1504.02 536.276L1508.27 537.047L1474.94 566.503L1470.69 565.732ZM1491.65 569.776C1489.63 569.41 1488.13 568.553 1487.13 567.206C1486.18 565.833 1485.95 564.187 1486.46 562.269L1487.26 559.253C1487.76 557.335 1488.79 555.933 1490.35 555.048C1491.94 554.137 1493.74 553.864 1495.76 554.23C1497.78 554.595 1499.28 555.467 1500.27 556.846C1501.26 558.194 1501.51 559.827 1501 561.745L1500.2 564.761C1499.69 566.679 1498.64 568.094 1497.05 569.004C1495.46 569.884 1493.66 570.141 1491.65 569.776ZM1492.61 566.156C1494.4 566.481 1495.53 565.762 1496 563.999L1496.8 560.983C1497.27 559.188 1496.61 558.129 1494.82 557.803C1493.02 557.478 1491.89 558.212 1491.41 560.006L1490.61 563.023C1490.15 564.786 1490.81 565.83 1492.61 566.156ZM1483.21 548.549C1481.22 548.189 1479.72 547.333 1478.69 545.979C1477.69 544.631 1477.45 542.983 1477.97 541.034L1478.76 538.018C1479.28 536.069 1480.33 534.654 1481.92 533.775C1483.53 532.901 1485.33 532.644 1487.32 533.003C1489.3 533.363 1490.79 534.217 1491.79 535.565C1492.78 536.913 1493.02 538.561 1492.51 540.51L1491.71 543.526C1491.2 545.475 1490.14 546.89 1488.56 547.769C1486.97 548.649 1485.19 548.909 1483.21 548.549ZM1484.15 544.976C1485.95 545.301 1487.08 544.567 1487.55 542.773L1488.35 539.756C1488.83 537.962 1488.17 536.902 1486.37 536.577C1485.49 536.417 1484.76 536.51 1484.17 536.858C1483.61 537.211 1483.21 537.852 1482.97 538.78L1482.17 541.796C1481.92 542.724 1481.97 543.445 1482.29 543.958C1482.65 544.477 1483.27 544.816 1484.15 544.976Z" fill="white"/>
<path d="M1005.39 837.11L1038.72 807.653L1042.97 808.424L1009.64 837.88L1005.39 837.11ZM1026.34 841.153C1024.33 840.788 1022.82 839.931 1021.83 838.583C1020.87 837.21 1020.65 835.564 1021.15 833.646L1021.95 830.63C1022.46 828.712 1023.49 827.31 1025.04 826.425C1026.64 825.514 1028.44 825.242 1030.46 825.607C1032.47 825.973 1033.97 826.845 1034.96 828.224C1035.96 829.571 1036.2 831.204 1035.69 833.122L1034.9 836.139C1034.39 838.057 1033.34 839.471 1031.75 840.382C1030.16 841.261 1028.36 841.518 1026.34 841.153ZM1027.3 837.533C1029.1 837.859 1030.23 837.14 1030.69 835.377L1031.49 832.36C1031.97 830.566 1031.31 829.506 1029.51 829.18C1027.72 828.855 1026.58 829.589 1026.11 831.384L1025.31 834.4C1024.84 836.164 1025.51 837.208 1027.3 837.533ZM1017.9 819.926C1015.92 819.567 1014.41 818.71 1013.38 817.357C1012.39 816.009 1012.15 814.36 1012.66 812.411L1013.46 809.395C1013.98 807.446 1015.03 806.032 1016.61 805.152C1018.23 804.278 1020.03 804.021 1022.01 804.381C1024 804.741 1025.49 805.594 1026.48 806.942C1027.48 808.29 1027.72 809.938 1027.2 811.887L1026.41 814.904C1025.89 816.853 1024.84 818.267 1023.25 819.147C1021.67 820.026 1019.88 820.286 1017.9 819.926ZM1018.85 816.353C1020.64 816.679 1021.78 815.944 1022.25 814.15L1023.05 811.134C1023.52 809.339 1022.86 808.279 1021.07 807.954C1020.19 807.794 1019.45 807.888 1018.86 808.235C1018.31 808.589 1017.91 809.229 1017.66 810.157L1016.87 813.174C1016.62 814.102 1016.66 814.822 1016.99 815.335C1017.34 815.854 1017.96 816.193 1018.85 816.353Z" fill="white"/>
<path d="M126.455 675.674L90.8452 645.959L86.5691 646.573L122.179 676.288L126.455 675.674ZM105.388 678.939C107.415 678.648 108.896 677.863 109.83 676.583C110.722 675.278 110.854 673.685 110.226 671.803L109.238 668.843C108.61 666.961 107.48 665.565 105.848 664.654C104.175 663.718 102.324 663.395 100.297 663.686C98.2699 663.978 96.7944 664.778 95.8706 666.088C94.9366 667.367 94.7837 668.948 95.4118 670.83L96.3996 673.789C97.0277 675.671 98.1785 677.08 99.852 678.017C101.515 678.923 103.361 679.23 105.388 678.939ZM104.203 675.388C102.397 675.647 101.206 674.912 100.628 673.182L99.6404 670.222C99.0528 668.462 99.6617 667.452 101.467 667.192C103.273 666.933 104.469 667.683 105.057 669.444L106.045 672.403C106.622 674.134 106.008 675.128 104.203 675.388ZM112.727 658.56C114.722 658.274 116.203 657.488 117.168 656.205C118.102 654.925 118.25 653.329 117.612 651.417L116.624 648.458C115.986 646.545 114.835 645.136 113.172 644.23C111.477 643.328 109.632 643.021 107.636 643.308C105.64 643.594 104.176 644.377 103.242 645.657C102.308 646.936 102.16 648.532 102.798 650.444L103.786 653.404C104.424 655.316 105.575 656.725 107.238 657.631C108.902 658.537 110.731 658.847 112.727 658.56ZM111.557 655.055C109.751 655.314 108.555 654.563 107.967 652.803L106.979 649.843C106.392 648.083 107.001 647.073 108.806 646.813C109.693 646.686 110.445 646.801 111.062 647.157C111.647 647.519 112.092 648.155 112.396 649.065L113.383 652.025C113.687 652.935 113.689 653.635 113.387 654.124C113.054 654.617 112.444 654.927 111.557 655.055Z" fill="white"/>
</svg>
