<svg width="242" height="34" viewBox="0 0 242 34" fill="none" xmlns="http://www.w3.org/2000/svg">
<path d="M3.30199 33C2.62732 33 2.04066 32.7507 1.54199 32.252C1.04332 31.7533 0.793989 31.1667 0.793989 30.492V3.388C0.793989 2.71333 1.04332 2.12666 1.54199 1.628C2.04066 1.12933 2.62732 0.879999 3.30199 0.879999H5.06199C5.73666 0.879999 6.32332 1.12933 6.82199 1.628C7.32066 2.12666 7.56999 2.71333 7.56999 3.388V30.492C7.56999 31.1667 7.32066 31.7533 6.82199 32.252C6.32332 32.7507 5.73666 33 5.06199 33H3.30199ZM16.3067 25.916L29.4187 5.984V5.94L29.4627 5.896C29.4627 5.86666 29.4481 5.852 29.4187 5.852H17.4507C16.7761 5.852 16.1894 5.61733 15.6907 5.148C15.1921 4.64933 14.9427 4.06267 14.9427 3.388C14.9427 2.71333 15.1921 2.12666 15.6907 1.628C16.1894 1.12933 16.7761 0.879999 17.4507 0.879999H34.1707C34.8454 0.879999 35.4321 1.12933 35.9307 1.628C36.4294 2.12666 36.6787 2.71333 36.6787 3.388C36.6787 5.03066 36.2241 6.556 35.3147 7.964L22.2027 27.896V27.94L22.1587 27.984C22.1587 28.0133 22.1734 28.028 22.2027 28.028H34.1707C34.8454 28.028 35.4321 28.2773 35.9307 28.776C36.4294 29.2453 36.6787 29.8173 36.6787 30.492C36.6787 31.1667 36.4294 31.7533 35.9307 32.252C35.4321 32.7507 34.8454 33 34.1707 33H17.4507C16.7761 33 16.1894 32.7507 15.6907 32.252C15.1921 31.7533 14.9427 31.1667 14.9427 30.492C14.9427 28.8493 15.3974 27.324 16.3067 25.916ZM46.5715 33C45.8969 33 45.3102 32.7507 44.8115 32.252C44.3129 31.7533 44.0635 31.1667 44.0635 30.492V3.388C44.0635 2.71333 44.3129 2.12666 44.8115 1.628C45.3102 1.12933 45.8969 0.879999 46.5715 0.879999H48.3315C49.0062 0.879999 49.5929 1.12933 50.0915 1.628C50.5902 2.12666 50.8395 2.71333 50.8395 3.388V30.492C50.8395 31.1667 50.5902 31.7533 50.0915 32.252C49.5929 32.7507 49.0062 33 48.3315 33H46.5715Z" fill="url(#paint0_linear_138_1016)"/>
<path d="M64.7683 5.984V27.896C64.7683 28.1013 64.8856 28.2333 65.1203 28.292C66.0589 28.4387 66.9389 28.512 67.7603 28.512C71.1923 28.512 73.7149 27.588 75.3283 25.74C76.9416 23.8627 77.7483 20.7827 77.7483 16.5C77.7483 12.6573 76.9269 9.84133 75.2843 8.052C73.6416 6.26267 71.1336 5.368 67.7603 5.368C66.9389 5.368 66.0589 5.44133 65.1203 5.588C64.8856 5.64666 64.7683 5.77866 64.7683 5.984ZM61.1603 33.132C60.4269 33.044 59.8256 32.736 59.3563 32.208C58.8869 31.6507 58.6523 31.0053 58.6523 30.272V3.608C58.6523 2.87467 58.8869 2.244 59.3563 1.716C59.8256 1.15867 60.4269 0.835999 61.1603 0.747998C63.0376 0.542666 65.1349 0.44 67.4523 0.44C72.6736 0.44 76.6629 1.804 79.4203 4.532C82.2069 7.26 83.6003 11.2493 83.6003 16.5C83.6003 22.132 82.2069 26.3707 79.4203 29.216C76.6629 32.032 72.6736 33.44 67.4523 33.44C65.1349 33.44 63.0376 33.3373 61.1603 33.132ZM91.9465 33C91.2719 33 90.6852 32.7507 90.1865 32.252C89.6879 31.7533 89.4385 31.1667 89.4385 30.492V12.628C89.4385 11.9533 89.6879 11.3667 90.1865 10.868C90.6852 10.3693 91.2719 10.12 91.9465 10.12H93.0905C93.7652 10.12 94.3519 10.3693 94.8505 10.868C95.3492 11.3667 95.5985 11.9533 95.5985 12.628V30.492C95.5985 31.1667 95.3492 31.7533 94.8505 32.252C94.3519 32.7507 93.7652 33 93.0905 33H91.9465ZM91.9465 5.28C91.2719 5.28 90.6852 5.03066 90.1865 4.532C89.6879 4.03333 89.4385 3.44667 89.4385 2.772V2.508C89.4385 1.83333 89.6879 1.24667 90.1865 0.747998C90.6852 0.249331 91.2719 -2.6226e-06 91.9465 -2.6226e-06H93.0905C93.7652 -2.6226e-06 94.3519 0.249331 94.8505 0.747998C95.3492 1.24667 95.5985 1.83333 95.5985 2.508V2.772C95.5985 3.44667 95.3492 4.03333 94.8505 4.532C94.3519 5.03066 93.7652 5.28 93.0905 5.28H91.9465ZM110.862 23.76C107.782 23.0853 105.582 22.1613 104.262 20.988C102.971 19.8147 102.326 18.2893 102.326 16.412C102.326 14.3 103.103 12.6573 104.658 11.484C106.242 10.2813 108.574 9.68 111.654 9.68C113.59 9.68 115.511 9.856 117.418 10.208C118.063 10.3253 118.576 10.648 118.958 11.176C119.368 11.6747 119.574 12.2613 119.574 12.936C119.574 13.4933 119.354 13.948 118.914 14.3C118.474 14.6227 117.975 14.7107 117.418 14.564C115.775 14.1533 114.044 13.948 112.226 13.948C109.586 13.948 108.266 14.6813 108.266 16.148C108.266 16.852 108.515 17.4387 109.014 17.908C109.512 18.3773 110.363 18.744 111.566 19.008C114.939 19.6827 117.242 20.592 118.474 21.736C119.735 22.88 120.366 24.552 120.366 26.752C120.366 28.864 119.574 30.5067 117.99 31.68C116.406 32.8533 114.103 33.44 111.082 33.44C109.116 33.44 107.107 33.2053 105.054 32.736C104.408 32.5893 103.88 32.252 103.47 31.724C103.059 31.1667 102.854 30.536 102.854 29.832C102.854 29.2747 103.074 28.8493 103.514 28.556C103.983 28.2627 104.482 28.1893 105.01 28.336C106.916 28.864 108.72 29.128 110.422 29.128C113.091 29.128 114.426 28.336 114.426 26.752C114.426 25.9893 114.162 25.388 113.634 24.948C113.135 24.508 112.211 24.112 110.862 23.76ZM135.571 33.44C131.934 33.44 129.132 32.4427 127.167 30.448C125.202 28.424 124.219 25.4613 124.219 21.56C124.219 17.7173 125.158 14.784 127.035 12.76C128.942 10.7067 131.64 9.68 135.131 9.68C136.686 9.68 138.182 9.78267 139.619 9.988C140.294 10.076 140.851 10.384 141.291 10.912C141.731 11.44 141.951 12.056 141.951 12.76C141.951 13.3467 141.716 13.816 141.247 14.168C140.807 14.52 140.294 14.6373 139.707 14.52C138.563 14.2853 137.287 14.168 135.879 14.168C134.031 14.168 132.652 14.7547 131.743 15.928C130.834 17.1013 130.379 18.9787 130.379 21.56C130.379 24.2 130.863 26.092 131.831 27.236C132.799 28.38 134.295 28.952 136.319 28.952C137.756 28.952 139.003 28.82 140.059 28.556C140.616 28.4093 141.115 28.512 141.555 28.864C142.024 29.216 142.259 29.6707 142.259 30.228C142.259 30.932 142.039 31.548 141.599 32.076C141.188 32.604 140.646 32.9267 139.971 33.044C138.475 33.308 137.008 33.44 135.571 33.44ZM161.567 15.796C160.716 14.564 159.426 13.948 157.695 13.948C155.964 13.948 154.659 14.564 153.779 15.796C152.928 16.9987 152.503 18.92 152.503 21.56C152.503 24.2 152.928 26.136 153.779 27.368C154.659 28.5707 155.964 29.172 157.695 29.172C159.426 29.172 160.716 28.5707 161.567 27.368C162.447 26.136 162.887 24.2 162.887 21.56C162.887 18.92 162.447 16.9987 161.567 15.796ZM165.879 30.36C163.943 32.4133 161.215 33.44 157.695 33.44C154.175 33.44 151.432 32.4133 149.467 30.36C147.531 28.2773 146.563 25.344 146.563 21.56C146.563 17.776 147.531 14.8573 149.467 12.804C151.432 10.7213 154.175 9.68 157.695 9.68C161.215 9.68 163.943 10.7213 165.879 12.804C167.844 14.8573 168.827 17.776 168.827 21.56C168.827 25.344 167.844 28.2773 165.879 30.36ZM180.541 33.44C177.959 33.44 176.082 32.736 174.909 31.328C173.735 29.8907 173.149 27.4707 173.149 24.068V12.628C173.149 11.9533 173.398 11.3667 173.897 10.868C174.395 10.3693 174.982 10.12 175.657 10.12H176.361C177.035 10.12 177.622 10.3693 178.121 10.868C178.619 11.3667 178.869 11.9533 178.869 12.628V23.452C178.869 25.5053 179.147 26.928 179.705 27.72C180.262 28.512 181.201 28.908 182.521 28.908C183.723 28.908 184.838 28.3947 185.865 27.368C186.921 26.3413 187.449 25.2413 187.449 24.068V12.628C187.449 11.9533 187.698 11.3667 188.197 10.868C188.695 10.3693 189.282 10.12 189.957 10.12H190.837C191.511 10.12 192.083 10.3693 192.553 10.868C193.051 11.3667 193.301 11.9533 193.301 12.628V30.492C193.301 31.1667 193.051 31.7533 192.553 32.252C192.083 32.7507 191.511 33 190.837 33H190.265C189.561 33 188.959 32.7653 188.461 32.296C187.991 31.7973 187.742 31.196 187.713 30.492L187.669 30.184C187.669 30.1547 187.654 30.14 187.625 30.14C187.595 30.14 187.566 30.1547 187.537 30.184C185.542 32.3547 183.21 33.44 180.541 33.44ZM201.873 33C201.198 33 200.611 32.7507 200.113 32.252C199.614 31.7533 199.365 31.1667 199.365 30.492V12.628C199.365 11.9533 199.614 11.3667 200.113 10.868C200.611 10.3693 201.198 10.12 201.873 10.12H202.445C203.149 10.12 203.735 10.3693 204.205 10.868C204.703 11.3373 204.967 11.924 204.997 12.628V12.936C204.997 12.9653 205.011 12.98 205.041 12.98C205.07 12.98 205.099 12.9653 205.129 12.936C207.123 10.7653 209.455 9.68 212.125 9.68C214.794 9.68 216.73 10.4427 217.933 11.968C219.165 13.464 219.781 15.972 219.781 19.492V30.492C219.781 31.1667 219.531 31.7533 219.033 32.252C218.534 32.7507 217.947 33 217.273 33H216.525C215.85 33 215.263 32.7507 214.765 32.252C214.295 31.7533 214.061 31.1667 214.061 30.492V19.932C214.061 17.732 213.767 16.236 213.181 15.444C212.623 14.6227 211.611 14.212 210.145 14.212C208.942 14.212 207.827 14.7253 206.801 15.752C205.774 16.7787 205.261 17.8787 205.261 19.052V30.492C205.261 31.1667 205.011 31.7533 204.513 32.252C204.014 32.7507 203.427 33 202.753 33H201.873ZM225.771 15.268C225.184 15.268 224.686 15.0627 224.275 14.652C223.864 14.212 223.659 13.6987 223.659 13.112C223.659 12.5253 223.864 12.0267 224.275 11.616C224.686 11.2053 225.184 11 225.771 11H227.883C228.147 11 228.279 10.868 228.279 10.604V5.148C228.279 4.47333 228.514 3.88667 228.983 3.388C229.482 2.88933 230.068 2.64 230.743 2.64H231.623C232.298 2.64 232.884 2.88933 233.383 3.388C233.882 3.88667 234.131 4.47333 234.131 5.148V10.604C234.131 10.868 234.263 11 234.527 11H239.543C240.13 11 240.628 11.2053 241.039 11.616C241.479 12.0267 241.699 12.5253 241.699 13.112C241.699 13.6987 241.479 14.212 241.039 14.652C240.628 15.0627 240.13 15.268 239.543 15.268H234.527C234.263 15.268 234.131 15.3853 234.131 15.62V24.508C234.131 26.4147 234.336 27.6467 234.747 28.204C235.158 28.7613 236.008 29.04 237.299 29.04C238.003 29.04 238.531 29.0107 238.883 28.952C239.47 28.8933 239.983 29.0253 240.423 29.348C240.863 29.6707 241.083 30.1107 241.083 30.668C241.083 31.3133 240.863 31.9 240.423 32.428C240.012 32.9267 239.499 33.2053 238.883 33.264C237.592 33.3813 236.624 33.44 235.979 33.44C233.134 33.44 231.139 32.8387 229.995 31.636C228.851 30.404 228.279 28.2187 228.279 25.08V15.62C228.279 15.3853 228.147 15.268 227.883 15.268H225.771Z" fill="black"/>
<defs>
<linearGradient id="paint0_linear_138_1016" x1="139.706" y1="43.1304" x2="3.63694" y2="-21.8022" gradientUnits="userSpaceOnUse">
<stop stop-color="#4E6AB5"/>
<stop offset="1" stop-color="#5B7FE0"/>
</linearGradient>
</defs>
</svg>
