<svg width="218" height="64" viewBox="0 0 218 64" fill="none" xmlns="http://www.w3.org/2000/svg">
<path d="M76.0312 28H62.875V5.15625H76.0312V9.125H67.7188V14.1406H75.4531V18.1094H67.7188V24H76.0312V28ZM87.5938 10.1719C89.9375 10.1719 91.7344 10.6823 92.9844 11.7031C94.2344 12.724 94.8594 14.276 94.8594 16.3594V28H91.5312L90.6094 25.625H90.4844C89.9844 26.25 89.474 26.7604 88.9531 27.1562C88.4323 27.5521 87.8333 27.8438 87.1562 28.0312C86.4792 28.2188 85.6562 28.3125 84.6875 28.3125C83.6562 28.3125 82.7292 28.1146 81.9062 27.7188C81.0938 27.3229 80.4531 26.7188 79.9844 25.9062C79.5156 25.0833 79.2812 24.0417 79.2812 22.7812C79.2812 20.9271 79.9323 19.5625 81.2344 18.6875C82.5365 17.8021 84.4896 17.3125 87.0938 17.2188L90.125 17.125V16.3594C90.125 15.4427 89.8854 14.7708 89.4062 14.3438C88.9271 13.9167 88.2604 13.7031 87.4062 13.7031C86.5625 13.7031 85.7344 13.8229 84.9219 14.0625C84.1094 14.3021 83.2969 14.6042 82.4844 14.9688L80.9062 11.75C81.8333 11.2604 82.8698 10.875 84.0156 10.5938C85.1719 10.3125 86.3646 10.1719 87.5938 10.1719ZM90.125 19.9062L88.2812 19.9688C86.7396 20.0104 85.6667 20.2865 85.0625 20.7969C84.4688 21.3073 84.1719 21.9792 84.1719 22.8125C84.1719 23.5417 84.3854 24.0625 84.8125 24.375C85.2396 24.6771 85.7969 24.8281 86.4844 24.8281C87.5052 24.8281 88.3646 24.526 89.0625 23.9219C89.7708 23.3177 90.125 22.4583 90.125 21.3438V19.9062ZM111.969 22.8125C111.969 24 111.688 25.0052 111.125 25.8281C110.573 26.6406 109.745 27.2604 108.641 27.6875C107.536 28.1042 106.161 28.3125 104.516 28.3125C103.297 28.3125 102.25 28.2344 101.375 28.0781C100.51 27.9219 99.6354 27.6615 98.75 27.2969V23.3594C99.6979 23.7865 100.714 24.1406 101.797 24.4219C102.891 24.6927 103.849 24.8281 104.672 24.8281C105.599 24.8281 106.26 24.6927 106.656 24.4219C107.062 24.1406 107.266 23.776 107.266 23.3281C107.266 23.0365 107.182 22.776 107.016 22.5469C106.859 22.3073 106.516 22.0417 105.984 21.75C105.453 21.4479 104.62 21.0573 103.484 20.5781C102.391 20.1198 101.49 19.6562 100.781 19.1875C100.083 18.7188 99.5625 18.1667 99.2188 17.5312C98.8854 16.8854 98.7188 16.0677 98.7188 15.0781C98.7188 13.4635 99.3438 12.25 100.594 11.4375C101.854 10.6146 103.536 10.2031 105.641 10.2031C106.724 10.2031 107.755 10.3125 108.734 10.5312C109.724 10.75 110.74 11.099 111.781 11.5781L110.344 15.0156C109.479 14.6406 108.661 14.3333 107.891 14.0938C107.13 13.8542 106.354 13.7344 105.562 13.7344C104.865 13.7344 104.339 13.8281 103.984 14.0156C103.63 14.2031 103.453 14.4896 103.453 14.875C103.453 15.1562 103.542 15.4062 103.719 15.625C103.906 15.8438 104.26 16.0885 104.781 16.3594C105.312 16.6198 106.089 16.9583 107.109 17.375C108.099 17.7812 108.958 18.2083 109.688 18.6562C110.417 19.0938 110.979 19.6406 111.375 20.2969C111.771 20.9427 111.969 21.7812 111.969 22.8125ZM113.188 10.5312H118.406L121.703 20.3594C121.807 20.6719 121.896 20.9896 121.969 21.3125C122.042 21.6354 122.104 21.9688 122.156 22.3125C122.208 22.6562 122.25 23.0156 122.281 23.3906H122.375C122.438 22.8281 122.521 22.3021 122.625 21.8125C122.74 21.3229 122.88 20.8385 123.047 20.3594L126.281 10.5312H131.391L124 30.2344C123.552 31.4427 122.969 32.4479 122.25 33.25C121.531 34.0625 120.703 34.6719 119.766 35.0781C118.839 35.4844 117.818 35.6875 116.703 35.6875C116.161 35.6875 115.693 35.6562 115.297 35.5938C114.901 35.5417 114.562 35.4844 114.281 35.4219V31.6406C114.5 31.6927 114.776 31.7396 115.109 31.7812C115.443 31.8229 115.792 31.8438 116.156 31.8438C116.823 31.8438 117.396 31.7031 117.875 31.4219C118.354 31.1406 118.755 30.7604 119.078 30.2812C119.401 29.8125 119.656 29.2969 119.844 28.7344L120.125 27.875L113.188 10.5312Z" fill="#5AAF4C"/>
<path d="M81.8281 48.3594C81.8281 50.9323 81.3333 53.0833 80.3438 54.8125C79.3646 56.5312 77.9427 57.8281 76.0781 58.7031C74.2135 59.5677 71.9688 60 69.3438 60H62.875V37.1562H70.0469C72.4427 37.1562 74.5208 37.5833 76.2812 38.4375C78.0417 39.2812 79.4062 40.5365 80.375 42.2031C81.3438 43.8594 81.8281 45.9115 81.8281 48.3594ZM76.7969 48.4844C76.7969 46.7969 76.5469 45.4115 76.0469 44.3281C75.5573 43.2344 74.8281 42.4271 73.8594 41.9062C72.901 41.3854 71.7135 41.125 70.2969 41.125H67.7188V56H69.7969C72.1615 56 73.9167 55.3698 75.0625 54.1094C76.2188 52.849 76.7969 50.974 76.7969 48.4844ZM90.9531 42.5312V60H86.1875V42.5312H90.9531ZM88.5781 35.6875C89.2865 35.6875 89.8958 35.8542 90.4062 36.1875C90.9167 36.5104 91.1719 37.1198 91.1719 38.0156C91.1719 38.901 90.9167 39.5156 90.4062 39.8594C89.8958 40.1927 89.2865 40.3594 88.5781 40.3594C87.8594 40.3594 87.2448 40.1927 86.7344 39.8594C86.2344 39.5156 85.9844 38.901 85.9844 38.0156C85.9844 37.1198 86.2344 36.5104 86.7344 36.1875C87.2448 35.8542 87.8594 35.6875 88.5781 35.6875ZM108.156 54.8125C108.156 56 107.875 57.0052 107.312 57.8281C106.76 58.6406 105.932 59.2604 104.828 59.6875C103.724 60.1042 102.349 60.3125 100.703 60.3125C99.4844 60.3125 98.4375 60.2344 97.5625 60.0781C96.6979 59.9219 95.8229 59.6615 94.9375 59.2969V55.3594C95.8854 55.7865 96.901 56.1406 97.9844 56.4219C99.0781 56.6927 100.036 56.8281 100.859 56.8281C101.786 56.8281 102.448 56.6927 102.844 56.4219C103.25 56.1406 103.453 55.776 103.453 55.3281C103.453 55.0365 103.37 54.776 103.203 54.5469C103.047 54.3073 102.703 54.0417 102.172 53.75C101.641 53.4479 100.807 53.0573 99.6719 52.5781C98.5781 52.1198 97.6771 51.6562 96.9688 51.1875C96.2708 50.7188 95.75 50.1667 95.4062 49.5312C95.0729 48.8854 94.9062 48.0677 94.9062 47.0781C94.9062 45.4635 95.5312 44.25 96.7812 43.4375C98.0417 42.6146 99.724 42.2031 101.828 42.2031C102.911 42.2031 103.943 42.3125 104.922 42.5312C105.911 42.75 106.927 43.099 107.969 43.5781L106.531 47.0156C105.667 46.6406 104.849 46.3333 104.078 46.0938C103.318 45.8542 102.542 45.7344 101.75 45.7344C101.052 45.7344 100.526 45.8281 100.172 46.0156C99.8177 46.2031 99.6406 46.4896 99.6406 46.875C99.6406 47.1562 99.7292 47.4062 99.9062 47.625C100.094 47.8438 100.448 48.0885 100.969 48.3594C101.5 48.6198 102.276 48.9583 103.297 49.375C104.286 49.7812 105.146 50.2083 105.875 50.6562C106.604 51.0938 107.167 51.6406 107.562 52.2969C107.958 52.9427 108.156 53.7812 108.156 54.8125ZM118.969 60.3125C117.24 60.3125 115.766 60 114.547 59.375C113.328 58.7396 112.401 57.7604 111.766 56.4375C111.13 55.1146 110.812 53.4219 110.812 51.3594C110.812 49.224 111.172 47.4844 111.891 46.1406C112.62 44.7865 113.625 43.7917 114.906 43.1562C116.198 42.5208 117.693 42.2031 119.391 42.2031C120.599 42.2031 121.641 42.3229 122.516 42.5625C123.401 42.7917 124.172 43.0677 124.828 43.3906L123.422 47.0781C122.672 46.776 121.974 46.5312 121.328 46.3438C120.682 46.1458 120.036 46.0469 119.391 46.0469C118.557 46.0469 117.865 46.2448 117.312 46.6406C116.76 47.026 116.349 47.6094 116.078 48.3906C115.807 49.1719 115.672 50.151 115.672 51.3281C115.672 52.4844 115.818 53.4427 116.109 54.2031C116.401 54.9635 116.823 55.5312 117.375 55.9062C117.927 56.2708 118.599 56.4531 119.391 56.4531C120.38 56.4531 121.26 56.3229 122.031 56.0625C122.802 55.7917 123.552 55.4167 124.281 54.9375V59.0156C123.552 59.474 122.786 59.8021 121.984 60C121.193 60.2083 120.188 60.3125 118.969 60.3125ZM144.219 51.2344C144.219 52.6927 144.021 53.9844 143.625 55.1094C143.24 56.2344 142.672 57.1875 141.922 57.9688C141.182 58.7396 140.286 59.3229 139.234 59.7188C138.193 60.1146 137.016 60.3125 135.703 60.3125C134.474 60.3125 133.344 60.1146 132.312 59.7188C131.292 59.3229 130.401 58.7396 129.641 57.9688C128.891 57.1875 128.307 56.2344 127.891 55.1094C127.484 53.9844 127.281 52.6927 127.281 51.2344C127.281 49.2969 127.625 47.6562 128.312 46.3125C129 44.9688 129.979 43.9479 131.25 43.25C132.521 42.5521 134.036 42.2031 135.797 42.2031C137.432 42.2031 138.88 42.5521 140.141 43.25C141.411 43.9479 142.406 44.9688 143.125 46.3125C143.854 47.6562 144.219 49.2969 144.219 51.2344ZM132.141 51.2344C132.141 52.3802 132.266 53.3438 132.516 54.125C132.766 54.9062 133.156 55.4948 133.688 55.8906C134.219 56.2865 134.911 56.4844 135.766 56.4844C136.609 56.4844 137.292 56.2865 137.812 55.8906C138.344 55.4948 138.729 54.9062 138.969 54.125C139.219 53.3438 139.344 52.3802 139.344 51.2344C139.344 50.0781 139.219 49.1198 138.969 48.3594C138.729 47.5885 138.344 47.0104 137.812 46.625C137.281 46.2396 136.589 46.0469 135.734 46.0469C134.474 46.0469 133.557 46.4792 132.984 47.3438C132.422 48.2083 132.141 49.5052 132.141 51.2344ZM164.188 42.5312V60H160.531L159.891 57.7656H159.641C159.266 58.3594 158.797 58.8438 158.234 59.2188C157.672 59.5938 157.052 59.8698 156.375 60.0469C155.698 60.224 154.995 60.3125 154.266 60.3125C153.016 60.3125 151.927 60.0938 151 59.6562C150.073 59.2083 149.349 58.5156 148.828 57.5781C148.318 56.6406 148.062 55.4219 148.062 53.9219V42.5312H152.828V52.7344C152.828 53.9844 153.052 54.9271 153.5 55.5625C153.948 56.1979 154.661 56.5156 155.641 56.5156C156.609 56.5156 157.37 56.2969 157.922 55.8594C158.474 55.4115 158.859 54.7604 159.078 53.9062C159.307 53.0417 159.422 51.9896 159.422 50.75V42.5312H164.188ZM179.109 42.2031C180.974 42.2031 182.474 42.7135 183.609 43.7344C184.745 44.7448 185.312 46.3698 185.312 48.6094V60H180.547V49.7969C180.547 48.5469 180.318 47.6042 179.859 46.9688C179.411 46.3333 178.703 46.0156 177.734 46.0156C176.276 46.0156 175.281 46.5104 174.75 47.5C174.219 48.4896 173.953 49.9167 173.953 51.7812V60H169.188V42.5312H172.828L173.469 44.7656H173.734C174.109 44.1615 174.573 43.6719 175.125 43.2969C175.688 42.9219 176.307 42.6458 176.984 42.4688C177.672 42.2917 178.38 42.2031 179.109 42.2031ZM197.578 56.5156C198.099 56.5156 198.604 56.4635 199.094 56.3594C199.594 56.2552 200.089 56.125 200.578 55.9688V59.5156C200.068 59.7448 199.432 59.9323 198.672 60.0781C197.922 60.2344 197.099 60.3125 196.203 60.3125C195.161 60.3125 194.224 60.1458 193.391 59.8125C192.568 59.4688 191.917 58.8802 191.438 58.0469C190.969 57.2031 190.734 56.0312 190.734 54.5312V46.1094H188.453V44.0938L191.078 42.5L192.453 38.8125H195.5V42.5312H200.391V46.1094H195.5V54.5312C195.5 55.1979 195.688 55.6979 196.062 56.0312C196.448 56.3542 196.953 56.5156 197.578 56.5156ZM216.312 54.8125C216.312 56 216.031 57.0052 215.469 57.8281C214.917 58.6406 214.089 59.2604 212.984 59.6875C211.88 60.1042 210.505 60.3125 208.859 60.3125C207.641 60.3125 206.594 60.2344 205.719 60.0781C204.854 59.9219 203.979 59.6615 203.094 59.2969V55.3594C204.042 55.7865 205.057 56.1406 206.141 56.4219C207.234 56.6927 208.193 56.8281 209.016 56.8281C209.943 56.8281 210.604 56.6927 211 56.4219C211.406 56.1406 211.609 55.776 211.609 55.3281C211.609 55.0365 211.526 54.776 211.359 54.5469C211.203 54.3073 210.859 54.0417 210.328 53.75C209.797 53.4479 208.964 53.0573 207.828 52.5781C206.734 52.1198 205.833 51.6562 205.125 51.1875C204.427 50.7188 203.906 50.1667 203.562 49.5312C203.229 48.8854 203.062 48.0677 203.062 47.0781C203.062 45.4635 203.688 44.25 204.938 43.4375C206.198 42.6146 207.88 42.2031 209.984 42.2031C211.068 42.2031 212.099 42.3125 213.078 42.5312C214.068 42.75 215.083 43.099 216.125 43.5781L214.688 47.0156C213.823 46.6406 213.005 46.3333 212.234 46.0938C211.474 45.8542 210.698 45.7344 209.906 45.7344C209.208 45.7344 208.682 45.8281 208.328 46.0156C207.974 46.2031 207.797 46.4896 207.797 46.875C207.797 47.1562 207.885 47.4062 208.062 47.625C208.25 47.8438 208.604 48.0885 209.125 48.3594C209.656 48.6198 210.432 48.9583 211.453 49.375C212.443 49.7812 213.302 50.2083 214.031 50.6562C214.76 51.0938 215.323 51.6406 215.719 52.2969C216.115 52.9427 216.312 53.7812 216.312 54.8125Z" fill="#2A2A2A"/>
<path d="M28.9398 39.7656L27.5142 41.5341C26.4044 42.9064 20.8633 49.9504 20.8633 53.8472C20.8633 58.2943 24.4865 61.9192 28.9398 61.9192C33.3936 61.9192 37.0163 58.3015 37.0163 53.8472C37.0163 49.9511 31.4752 42.9064 30.3654 41.5341L28.9398 39.7656ZM28.9398 58.2428C26.5074 58.2428 24.5378 56.2692 24.5378 53.8398C24.5378 52.2985 26.8231 48.5933 28.9398 45.7019C31.0565 48.6005 33.3418 52.2987 33.3418 53.8398C33.3418 56.2685 31.3722 58.2428 28.9398 58.2428Z" fill="#5AAF4C"/>
<path d="M48.5391 13.3047C37.4493 2.23177 19.4079 2.23177 8.31732 13.3047C-2.77244 24.3776 -2.77244 42.3917 8.31732 53.4655L9.61787 54.764L28.1599 36.2502C27.8805 35.9492 27.697 35.597 27.616 35.2229C27.4545 34.5037 27.6529 33.7257 28.2111 33.1683C28.7181 32.662 29.4015 32.464 30.0556 32.5443C30.1289 32.5515 30.2028 32.5592 30.2761 32.5735C30.6508 32.6544 31.0112 32.8376 31.3049 33.1166L49.8469 14.6027L48.5391 13.3047ZM14.6231 44.5722C12.4331 41.8937 11.1029 38.6576 10.7501 35.2166H23.9864L14.6231 44.5722ZM10.743 31.5471C11.0957 28.1053 12.4332 24.8771 14.6231 22.1985L23.9934 31.5471H10.743ZM26.5869 28.957L17.2242 19.6009C19.9139 17.4142 23.1399 16.0788 26.594 15.7267L26.5945 28.9573L26.5869 28.957ZM30.2614 28.957V15.7343C33.7084 16.0865 36.9415 17.4147 39.6312 19.6014L30.2614 28.957ZM42.2335 16.9961C38.3755 13.7382 33.532 11.9625 28.4251 11.9625C22.6928 11.9625 17.306 14.1931 13.2558 18.2363C9.20656 22.2794 6.97244 27.658 6.97244 33.3826C6.97244 38.4899 8.75079 43.3182 12.0136 47.17L9.65446 49.5256C1.26929 39.8173 1.68819 25.1048 10.9037 15.8956C15.7322 11.0745 22.0745 8.66058 28.4169 8.66058C34.186 8.66058 39.9552 10.6562 44.5848 14.6411L42.2335 16.9961Z" fill="#5AAF4C"/>
</svg>
