<svg width="17" height="14" viewBox="0 0 17 14" fill="none" xmlns="http://www.w3.org/2000/svg">
<path d="M6.6477 0.857021C6.6477 0.384138 6.39759 0.00017502 6.08734 0.000175047L0.560213 0.000175515C0.426276 0.000175527 0.303254 0.0713115 0.207595 0.19055C0.0804461 0.347499 -0.000167987 0.588119 -0.000167963 0.857021L-0.000167924 1.28598C-0.000167881 1.75886 0.249932 2.14282 0.560213 2.14282L6.08734 2.14282C6.24998 2.14282 6.39622 2.03815 6.49873 1.86974C6.55613 1.77664 6.5985 1.66362 6.6231 1.53806C6.6395 1.45857 6.64771 1.37383 6.64771 1.28598L6.6477 0.857021Z" fill="black"/>
<path d="M9.44264 6.06008C9.49594 6.09254 9.54514 6.13647 9.58888 6.19089C9.716 6.34784 9.79663 6.58739 9.79663 6.85629L9.79663 7.28525C9.79663 7.75813 9.54652 8.14209 9.23626 8.14209L0.560138 8.14209C0.249857 8.14209 -0.000244175 7.75813 -0.000244218 7.28525L-0.000244257 6.85629C-0.000244299 6.38341 0.249857 5.99945 0.560138 5.99945L9.23626 5.99945C9.3087 5.99945 9.3784 6.02141 9.44264 6.06008Z" fill="black"/>
<path d="M16.0428 11.9254C16.0756 12.0342 16.0947 12.1556 16.0947 12.2843L16.0947 12.7132C16.0947 12.9863 16.0114 13.2301 15.8815 13.387C15.7858 13.5021 15.6656 13.5701 15.5344 13.5701L0.560229 13.5701C0.249948 13.5701 -0.000152623 13.1861 -0.000152665 12.7132L-0.000152704 12.2843C-0.000152746 11.8114 0.249947 11.4274 0.560229 11.4274L15.5344 11.4274C15.7599 11.4274 15.954 11.6314 16.0428 11.9254Z" fill="black"/>
</svg>
