<svg width="17" height="11" viewBox="0 0 17 11" fill="none" xmlns="http://www.w3.org/2000/svg">
<path d="M16.3979 0.732762C16.3979 0.828962 16.382 0.924228 16.3512 1.01312C16.3203 1.10201 16.275 1.18278 16.2178 1.25083L8.63405 10.2787C8.51867 10.416 8.36221 10.4931 8.19908 10.4931C8.03594 10.4931 7.87948 10.416 7.76411 10.2787L0.180315 1.25083C0.123167 1.18283 0.0778297 1.10209 0.046891 1.01323C0.0159524 0.924372 1.86394e-05 0.829126 -4.09991e-07 0.732936C-1.94594e-05 0.636744 0.0158766 0.541492 0.0467801 0.452614C0.0776835 0.363736 0.122989 0.282973 0.18011 0.21494C0.237232 0.146907 0.305049 0.0929346 0.379692 0.0561027C0.454335 0.0192709 0.53434 0.000301338 0.615141 0.000278446C0.695942 0.000255554 0.775955 0.0191803 0.850612 0.0559702C0.92527 0.09276 0.993109 0.146696 1.05026 0.214697L8.19887 8.72495L15.3475 0.214696C15.4335 0.112198 15.5432 0.0423882 15.6626 0.0141003C15.7819 -0.0141885 15.9057 0.000315925 16.0181 0.0557788C16.1306 0.111242 16.2267 0.20517 16.2943 0.325677C16.3619 0.446184 16.3979 0.587855 16.3979 0.732762Z" fill="#737373"/>
</svg>
