<svg width="38" height="38" viewBox="0 0 38 38" fill="none" xmlns="http://www.w3.org/2000/svg">
<path d="M19.0001 19C22.4979 19 25.3334 16.1645 25.3334 12.6667C25.3334 9.16886 22.4979 6.33333 19.0001 6.33333C15.5023 6.33333 12.6667 9.16886 12.6667 12.6667C12.6667 16.1645 15.5023 19 19.0001 19Z" />
<path d="M31.6666 30.0833V31.6667C31.6666 32.0866 31.4998 32.4893 31.2028 32.7862C30.9059 33.0832 30.5032 33.25 30.0833 33.25H7.91659C7.49666 33.25 7.09393 33.0832 6.797 32.7862C6.50007 32.4893 6.33325 32.0866 6.33325 31.6667V30.0833C6.33325 27.5638 7.33414 25.1474 9.11574 23.3658C10.8973 21.5842 13.3137 20.5833 15.8333 20.5833H22.1666C24.6861 20.5833 27.1025 21.5842 28.8841 23.3658C30.6657 25.1474 31.6666 27.5638 31.6666 30.0833V30.0833Z" />
</svg>
