<svg width="7" height="11" viewBox="0 0 7 11" fill="none" xmlns="http://www.w3.org/2000/svg">
<path d="M1.24284 9.04289C0.85232 9.43342 0.85232 10.0666 1.24284 10.4571C1.63337 10.8476 2.26653 10.8476 2.65706 10.4571L1.24284 9.04289ZM5.84995 5.85L6.55706 6.55711C6.74459 6.36957 6.84995 6.11522 6.84995 5.85C6.84995 5.58478 6.74459 5.33043 6.55706 5.14289L5.84995 5.85ZM2.65706 1.24289C2.26653 0.85237 1.63337 0.85237 1.24284 1.24289C0.85232 1.63342 0.85232 2.26658 1.24284 2.65711L2.65706 1.24289ZM2.65706 10.4571L6.55706 6.55711L5.14284 5.14289L1.24284 9.04289L2.65706 10.4571ZM6.55706 5.14289L2.65706 1.24289L1.24284 2.65711L5.14284 6.55711L6.55706 5.14289Z" fill="#57B85F"/>
</svg>
