<svg width="44" height="38" viewBox="0 0 44 38" fill="none" xmlns="http://www.w3.org/2000/svg">
<path d="M33.0001 37.7146C30.3965 37.7146 28.2859 35.604 28.2859 33.0004C28.2859 30.3968 30.3965 28.2861 33.0001 28.2861C35.6037 28.2861 37.7144 30.3968 37.7144 33.0004C37.7144 35.604 35.6037 37.7146 33.0001 37.7146Z" fill="#C8C8C8"/>
<path d="M11.0004 37.7146C8.39678 37.7146 6.28614 35.604 6.28614 33.0004C6.28614 30.3968 8.39678 28.2861 11.0004 28.2861C13.604 28.2861 15.7146 30.3968 15.7146 33.0004C15.7146 35.604 13.604 37.7146 11.0004 37.7146Z" fill="#C8C8C8"/>
<path d="M0.165713 0.871247C0.550708 0.0949703 1.49513 -0.222454 2.2714 0.165684L8.55547 3.3085C9.09446 3.57407 9.4276 4.11778 9.4276 4.71649V6.2879H40.2492L40.9391 4.21835C41.2141 3.39336 42.1035 2.95022 42.9285 3.22522C43.7503 3.50021 44.1935 4.38963 43.9185 5.21305H43.9216L37.6344 24.07C37.4207 24.7142 36.822 25.1432 36.1431 25.1432H7.85462C7.43662 25.1432 7.0422 24.9814 6.7452 24.6844C6.44821 24.3874 6.28478 23.993 6.28478 23.575V5.68762L0.868133 2.97536C0.0950001 2.59037 -0.222425 1.64438 0.165713 0.871247ZM35.0133 22.0004L39.2027 9.42914H9.42917V22.0004H35.0133Z" fill="#C8C8C8"/>
</svg>
