<svg width="30" height="25" viewBox="0 0 30 25" fill="none" xmlns="http://www.w3.org/2000/svg">
<path d="M21.8751 25C20.1492 25 18.7501 23.6009 18.7501 21.8751C18.7501 20.1492 20.1492 18.7501 21.8751 18.7501C23.6009 18.7501 25 20.1492 25 21.8751C25 23.6009 23.6009 25 21.8751 25Z" fill="#737373"/>
<path d="M7.29199 25C5.56613 25 4.16705 23.6009 4.16705 21.8751C4.16705 20.1492 5.56613 18.7501 7.29199 18.7501C9.01785 18.7501 10.4169 20.1492 10.4169 21.8751C10.4169 23.6009 9.01785 25 7.29199 25Z" fill="#737373"/>
<path d="M0.109858 0.577527C0.365061 0.0629534 0.991091 -0.147459 1.50566 0.109828L5.67122 2.19312C6.0285 2.36916 6.24933 2.72957 6.24933 3.12644V4.16809H26.6802L27.1375 2.79624C27.3198 2.24937 27.9094 1.95563 28.4562 2.13792C29.001 2.3202 29.2947 2.90978 29.1125 3.4556H29.1145L24.9469 15.9554C24.8052 16.3824 24.4084 16.6668 23.9584 16.6668H5.20664C4.92956 16.6668 4.66811 16.5595 4.47124 16.3627C4.27436 16.1658 4.16603 15.9043 4.16603 15.6273V3.77018L0.575474 1.97229C0.0629826 1.71709 -0.14743 1.09002 0.109858 0.577527ZM23.2094 14.5835L25.9865 6.25034H6.25037V14.5835H23.2094Z" fill="#737373"/>
</svg>
