<svg width="377" height="506" viewBox="0 0 377 506" fill="none" xmlns="http://www.w3.org/2000/svg">
<path d="M0 9.95015C5.71212 -3.31672 11.4242 -3.31672 17.1364 9.95015H0Z" fill="white"/>
<path d="M17.1364 9.95015C22.8485 -3.31672 28.5606 -3.31672 34.2727 9.95015H17.1364Z" fill="white"/>
<path d="M34.2727 9.95015C39.9849 -3.31672 45.697 -3.31672 51.4091 9.95015H34.2727Z" fill="white"/>
<path d="M51.4091 9.95015C57.1212 -3.31672 62.8333 -3.31672 68.5455 9.95015H51.4091Z" fill="white"/>
<path d="M85.6818 9.95015C91.3939 -3.31672 97.1061 -3.31672 102.818 9.95015H85.6818Z" fill="white"/>
<path d="M119.955 9.95015C125.667 -3.31672 131.379 -3.31672 137.091 9.95015H119.955Z" fill="white"/>
<path d="M171.364 9.95015C177.076 -3.31672 182.788 -3.31672 188.5 9.95015H171.364Z" fill="white"/>
<path d="M257.045 9.95015C262.758 -3.31672 268.47 -3.31672 274.182 9.95015H257.045Z" fill="white"/>
<path d="M274.182 9.95015C279.894 -3.31672 285.606 -3.31672 291.318 9.95015H274.182Z" fill="white"/>
<path d="M102.818 9.95015C108.53 -3.31672 114.242 -3.31672 119.955 9.95015H102.818Z" fill="white"/>
<path d="M68.5455 9.95015C74.2576 -3.31672 79.9697 -3.31672 85.6818 9.95015H68.5455Z" fill="white"/>
<path d="M137.091 9.95015C142.803 -3.31672 148.515 -3.31672 154.227 9.95015H137.091Z" fill="white"/>
<path d="M154.227 9.95015C159.939 -3.31672 165.652 -3.31672 171.364 9.95015H154.227Z" fill="white"/>
<path d="M188.5 9.95015C194.212 -3.31672 199.924 -3.31672 205.636 9.95015H188.5Z" fill="white"/>
<path d="M205.636 9.95015C211.348 -3.31672 217.061 -3.31672 222.773 9.95015H205.636Z" fill="white"/>
<path d="M222.773 9.95015C228.485 -3.31672 234.197 -3.31672 239.909 9.95015H222.773Z" fill="white"/>
<path d="M239.909 9.95015C245.621 -3.31672 251.333 -3.31672 257.045 9.95015H239.909Z" fill="white"/>
<path d="M291.318 9.95015C297.03 -3.31672 302.742 -3.31672 308.455 9.95015H291.318Z" fill="white"/>
<path d="M308.455 9.95015C314.167 -3.31672 319.879 -3.31672 325.591 9.95015H308.455Z" fill="white"/>
<path d="M325.591 9.95015C331.303 -3.31672 337.015 -3.31672 342.727 9.95015H325.591Z" fill="white"/>
<path d="M342.727 9.95015C348.439 -3.31672 354.152 -3.31672 359.864 9.95015H342.727Z" fill="white"/>
<path d="M359.864 9.95015C365.576 -3.31672 371.288 -3.31672 377 9.95015H359.864Z" fill="white"/>
<path d="M0 10H377V506H0V10Z" fill="white"/>
</svg>
