<svg width="15" height="15" viewBox="0 0 15 15" fill="none" xmlns="http://www.w3.org/2000/svg">
<path d="M12.25 9.65526C11.5443 9.65526 10.9096 9.95214 10.4589 10.426L5.19326 7.84789C5.21137 7.72676 5.22384 7.60416 5.22384 7.47798C5.22384 7.35508 5.21197 7.23514 5.19475 7.11728L10.4527 4.56742C10.9037 5.04509 11.5413 5.34494 12.25 5.34494C13.6162 5.34494 14.7238 4.2373 14.7238 2.87108C14.7238 1.50456 13.6162 0.397217 12.25 0.397217C10.8838 0.397217 9.77612 1.50456 9.77612 2.87108C9.77612 2.99398 9.788 3.11362 9.80522 3.23178L4.54726 5.78164C4.09631 5.30397 3.45892 5.00412 2.74998 5.00412C1.38347 5.00412 0.276123 6.11176 0.276123 7.47798C0.276123 8.8445 1.38347 9.95184 2.74998 9.95184C3.45565 9.95184 4.09037 9.65497 4.54103 9.18115L9.8067 11.7592C9.78859 11.88 9.77612 12.003 9.77612 12.1291C9.77612 13.4956 10.8838 14.603 12.25 14.603C13.6162 14.603 14.7238 13.4956 14.7238 12.1291C14.7238 10.7626 13.6162 9.65526 12.25 9.65526Z" fill="#C8C8C8"/>
</svg>
