<svg width="19" height="19" viewBox="0 0 19 19" fill="none" xmlns="http://www.w3.org/2000/svg">
<path d="M17.8125 10.6875C17.6565 10.6874 17.5021 10.7181 17.358 10.7777C17.2138 10.8374 17.0829 10.9248 16.9726 11.0351C16.8623 11.1454 16.7749 11.2763 16.7152 11.4205C16.6556 11.5646 16.6249 11.719 16.625 11.875V15.4375H2.375V11.875C2.375 11.5601 2.24989 11.258 2.02719 11.0353C1.80449 10.8126 1.50244 10.6875 1.1875 10.6875C0.872556 10.6875 0.57051 10.8126 0.347811 11.0353C0.125111 11.258 1.90894e-07 11.5601 1.90894e-07 11.875V16.625C-8.82671e-05 16.781 0.030567 16.9354 0.0902131 17.0795C0.149859 17.2237 0.237326 17.3546 0.347614 17.4649C0.457901 17.5752 0.588845 17.6626 0.732959 17.7223C0.877073 17.7819 1.03153 17.8126 1.1875 17.8125H17.8125C17.9685 17.8126 18.1229 17.7819 18.267 17.7223C18.4112 17.6626 18.5421 17.5752 18.6524 17.4649C18.7627 17.3546 18.8501 17.2237 18.9098 17.0795C18.9694 16.9354 19.0001 16.781 19 16.625V11.875C19.0001 11.719 18.9694 11.5646 18.9098 11.4205C18.8501 11.2763 18.7627 11.1454 18.6524 11.0351C18.5421 10.9248 18.4112 10.8374 18.267 10.7777C18.1229 10.7181 17.9685 10.6874 17.8125 10.6875V10.6875Z" fill="#5AAF4C"/>
<path d="M8.66038 12.7146C8.77062 12.8249 8.90151 12.9124 9.04557 12.9721C9.18964 13.0318 9.34405 13.0625 9.49999 13.0625C9.65593 13.0625 9.81034 13.0318 9.9544 12.9721C10.0985 12.9124 10.2293 12.8249 10.3396 12.7146L13.9021 9.1521C14.1237 8.92921 14.248 8.62752 14.2475 8.31318C14.2471 7.99884 14.122 7.6975 13.8998 7.47523C13.6775 7.25296 13.3761 7.12789 13.0618 7.12746C12.7475 7.12702 12.4458 7.25125 12.2229 7.4729L10.6875 9.0083V2.375C10.6875 2.06006 10.5624 1.75801 10.3397 1.53531C10.117 1.31261 9.81493 1.1875 9.49999 1.1875C9.18504 1.1875 8.883 1.31261 8.6603 1.53531C8.4376 1.75801 8.31249 2.06006 8.31249 2.375V9.0083L6.77709 7.4729C6.5542 7.25125 6.25251 7.12702 5.93817 7.12746C5.62383 7.12789 5.32249 7.25296 5.10022 7.47523C4.87795 7.6975 4.75288 7.99884 4.75244 8.31318C4.75201 8.62752 4.87623 8.92921 5.09788 9.1521L8.66038 12.7146Z" fill="#5AAF4C"/>
</svg>
