<svg width="24" height="24" viewBox="0 0 41 41" fill="none" xmlns="http://www.w3.org/2000/svg">
<circle cx="20.5" cy="20.5" r="20" transform="rotate(-180 20.5 20.5)" fill="#E6F3E4"/>
<path d="M26.0858 23.9142C26.8668 24.6953 28.1332 24.6953 28.9142 23.9142C29.6953 23.1332 29.6953 21.8668 28.9142 21.0858L26.0858 23.9142ZM21 16L22.4142 14.5858C21.6332 13.8047 20.3668 13.8047 19.5858 14.5858L21 16ZM13.0858 21.0858C12.3047 21.8668 12.3047 23.1332 13.0858 23.9142C13.8668 24.6953 15.1332 24.6953 15.9142 23.9142L13.0858 21.0858ZM28.9142 21.0858L22.4142 14.5858L19.5858 17.4142L26.0858 23.9142L28.9142 21.0858ZM19.5858 14.5858L13.0858 21.0858L15.9142 23.9142L22.4142 17.4142L19.5858 14.5858Z" fill="#5AAF4C"/>
</svg>
