<svg width="24" height="24" viewBox="0 0 41 41" fill="none" xmlns="http://www.w3.org/2000/svg">
<circle cx="20.5" cy="20.5" r="20" fill="#E6F3E4"/>
<path d="M14.9142 17.0858C14.1332 16.3047 12.8668 16.3047 12.0858 17.0858C11.3047 17.8668 11.3047 19.1332 12.0858 19.9142L14.9142 17.0858ZM20 25L18.5858 26.4142C19.3668 27.1953 20.6332 27.1953 21.4142 26.4142L20 25ZM27.9142 19.9142C28.6953 19.1332 28.6953 17.8668 27.9142 17.0858C27.1332 16.3047 25.8668 16.3047 25.0858 17.0858L27.9142 19.9142ZM12.0858 19.9142L18.5858 26.4142L21.4142 23.5858L14.9142 17.0858L12.0858 19.9142ZM21.4142 26.4142L27.9142 19.9142L25.0858 17.0858L18.5858 23.5858L21.4142 26.4142Z" fill="#5AAF4C"/>
</svg>
