<svg width="25" height="25" viewBox="0 0 25 25" fill="none" xmlns="http://www.w3.org/2000/svg">
<path d="M17.9688 21.875C16.6743 21.875 15.625 20.8257 15.625 19.5312C15.625 18.2368 16.6743 17.1875 17.9688 17.1875C19.2632 17.1875 20.3125 18.2368 20.3125 19.5312C20.3125 20.8257 19.2632 21.875 17.9688 21.875Z" fill="#5AAF4C"/>
<path d="M7.03125 21.875C5.73683 21.875 4.6875 20.8257 4.6875 19.5312C4.6875 18.2368 5.73683 17.1875 7.03125 17.1875C8.32567 17.1875 9.375 18.2368 9.375 19.5312C9.375 20.8257 8.32567 21.875 7.03125 21.875Z" fill="#5AAF4C"/>
<path d="M1.64462 3.55779C1.83602 3.17185 2.30556 3.01404 2.69149 3.20701L5.81571 4.76951C6.08368 4.90154 6.24931 5.17185 6.24931 5.46951V6.25076H21.5727L21.9157 5.22185C22.0524 4.81169 22.4946 4.59138 22.9048 4.7281C23.3134 4.86482 23.5337 5.30701 23.397 5.71638H23.3985L20.2727 15.0914C20.1665 15.4117 19.8688 15.625 19.5313 15.625H5.46727C5.25946 15.625 5.06337 15.5445 4.91571 15.3969C4.76805 15.2492 4.68681 15.0531 4.68681 14.8453V5.95232L1.99384 4.60388C1.60946 4.41247 1.45165 3.94216 1.64462 3.55779ZM18.9696 14.0625L21.0524 7.81247H6.25009V14.0625H18.9696Z" fill="#5AAF4C"/>
</svg>
