<?xml version="1.0" encoding="utf-8"?>
<!-- Generator: Adobe Illustrator 23.0.5, SVG Export Plug-In . SVG Version: 6.00 Build 0)  -->
<svg version="1.1" id="Слой_1" xmlns="http://www.w3.org/2000/svg" xmlns:xlink="http://www.w3.org/1999/xlink" x="0px" y="0px"
	 viewBox="0 0 193 193" style="enable-background:new 0 0 193 193;" xml:space="preserve">
<style type="text/css">
	.st0{fill:#F5F6F5;}
	.st1{fill:#C8C8C8;}
</style>
<path class="st0" d="M6,0h181c3.3,0,6,2.7,6,6v181c0,3.3-2.7,6-6,6H6c-3.3,0-6-2.7-6-6V6C0,2.7,2.7,0,6,0z"/>
<g>
	<g>
		<path class="st1" d="M102.8,107.8l-2.4,3c-1.9,2.3-11.3,14.2-11.3,20.8c0,7.5,6.1,13.7,13.7,13.7c7.5,0,13.7-6.1,13.7-13.7
			c0-6.6-9.4-18.5-11.3-20.8L102.8,107.8z M102.8,139.1c-4.1,0-7.5-3.3-7.5-7.5c0-2.6,3.9-8.9,7.5-13.8c3.6,4.9,7.5,11.2,7.5,13.8
			C110.3,135.8,107,139.1,102.8,139.1z"/>
	</g>
	<path class="st1" d="M130,61C114,45,88,45,72,61c-16,15.9-16,41.9,0,57.8l1.9,1.9L100.6,94c-0.4-0.4-0.7-0.9-0.8-1.5
		c-0.2-1,0.1-2.2,0.9-3c0.7-0.7,1.7-1,2.7-0.9c0.1,0,0.2,0,0.3,0c0.5,0.1,1.1,0.4,1.5,0.8l26.7-26.7L130,61z M81.1,106
		c-3.2-3.9-5.1-8.5-5.6-13.5h19.1L81.1,106z M75.5,87.2c0.5-5,2.4-9.6,5.6-13.5l13.5,13.5H75.5z M98.3,83.5L84.8,70
		c3.9-3.1,8.5-5.1,13.5-5.6L98.3,83.5L98.3,83.5z M103.6,83.5v-19c5,0.5,9.6,2.4,13.5,5.6L103.6,83.5z M120.9,66.3
		c-5.6-4.7-12.5-7.2-19.9-7.2c-8.3,0-16,3.2-21.9,9c-5.8,5.8-9.1,13.6-9.1,21.8c0,7.4,2.6,14.3,7.3,19.9l-3.4,3.4
		c-12.1-14-11.5-35.2,1.8-48.4c7-6.9,16.1-10.4,25.3-10.4c8.3,0,16.6,2.9,23.3,8.6L120.9,66.3z"/>
</g>
</svg>
