<svg width="59" height="51" viewBox="0 0 59 51" fill="none" xmlns="http://www.w3.org/2000/svg">
<path d="M26.0151 32.4992C25.597 32.86 25.5506 33.4914 25.9114 33.9096C26.2722 34.3277 26.9037 34.3741 27.3218 34.0133L26.0151 32.4992ZM36.0944 25.1219L36.7478 25.879C36.9679 25.6891 37.0944 25.4127 37.0944 25.1219C37.0944 24.8312 36.9679 24.5548 36.7478 24.3649L36.0944 25.1219ZM27.3218 16.2306C26.9037 15.8698 26.2722 15.9162 25.9114 16.3343C25.5506 16.7524 25.597 17.3839 26.0151 17.7447L27.3218 16.2306ZM27.3218 34.0133L36.7478 25.879L35.4411 24.3649L26.0151 32.4992L27.3218 34.0133ZM36.7478 24.3649L27.3218 16.2306L26.0151 17.7447L35.4411 25.879L36.7478 24.3649Z" fill="#5AAF4C"/>
</svg>
