<svg width="1650" height="1157" viewBox="0 0 1650 1157" fill="none" xmlns="http://www.w3.org/2000/svg">
<g opacity="0.1" filter="url(#filter0_d_493_2621)">
<g filter="url(#filter1_d_493_2621)">
<path d="M1484.61 302.46L1472.85 317.031C1463.7 328.339 1418.02 386.38 1418.02 418.489C1418.02 455.131 1447.89 485 1484.61 485C1521.33 485 1551.2 455.191 1551.2 418.489C1551.2 386.385 1505.51 328.339 1496.36 317.031L1484.61 302.46ZM1484.61 454.707C1464.55 454.707 1448.31 438.445 1448.31 418.427C1448.31 405.728 1467.16 375.197 1484.61 351.373C1502.06 375.257 1520.9 405.729 1520.9 418.427C1520.9 438.439 1504.66 454.707 1484.61 454.707Z" fill="#5AAF4C"/>
</g>
<path d="M1616.82 74.2417C1538.95 -3.41389 1412.27 -3.41389 1334.4 74.2417C1256.53 151.897 1256.53 278.232 1334.4 355.893L1343.53 365L1473.72 235.161C1471.76 233.05 1470.47 230.58 1469.91 227.956C1468.77 222.913 1470.16 217.456 1474.08 213.547C1477.64 209.997 1482.44 208.607 1487.04 209.171C1487.55 209.221 1488.07 209.275 1488.58 209.376C1491.21 209.943 1493.74 211.228 1495.81 213.184L1626 83.3447L1616.82 74.2417ZM1378.68 293.523C1363.3 274.739 1353.96 252.044 1351.48 227.912H1444.42L1378.68 293.523ZM1351.43 202.177C1353.91 178.04 1363.3 155.4 1378.68 136.615L1444.47 202.177H1351.43ZM1462.68 184.013L1396.94 118.398C1415.83 103.062 1438.48 93.6969 1462.73 91.2277L1462.73 184.015L1462.68 184.013ZM1488.48 184.013V91.281C1512.68 93.7507 1535.38 103.066 1554.27 118.401L1488.48 184.013ZM1572.54 100.13C1545.45 77.2816 1511.45 64.8288 1475.59 64.8288C1435.34 64.8288 1397.51 80.4722 1369.08 108.828C1340.64 137.182 1324.96 174.902 1324.96 215.05C1324.96 250.868 1337.44 284.729 1360.35 311.743L1343.79 328.263C1284.91 260.177 1287.85 156.997 1352.56 92.4122C1386.46 58.601 1431 41.672 1475.53 41.672C1516.04 41.672 1556.55 55.6677 1589.05 83.6141L1572.54 100.13Z" fill="#C8C8C8"/>
</g>
<g opacity="0.1" filter="url(#filter2_d_493_2621)">
<g filter="url(#filter3_d_493_2621)">
<path d="M232.608 591.46L220.854 606.031C211.703 617.339 166.016 675.38 166.016 707.489C166.016 744.131 195.89 774 232.608 774C269.331 774 299.201 744.191 299.201 707.489C299.201 675.385 253.514 617.339 244.363 606.031L232.608 591.46ZM232.608 743.707C212.553 743.707 196.313 727.445 196.313 707.427C196.313 694.728 215.156 664.197 232.608 640.373C250.061 664.257 268.904 694.729 268.904 707.427C268.904 727.439 252.664 743.707 232.608 743.707Z" fill="#5AAF4C"/>
</g>
<path d="M364.817 363.242C286.951 285.586 160.272 285.586 82.4001 363.242C4.53331 440.897 4.53331 567.232 82.4001 644.893L91.5319 654L221.725 524.161C219.763 522.05 218.474 519.58 217.906 516.956C216.772 511.913 218.165 506.456 222.085 502.547C225.644 498.997 230.442 497.607 235.036 498.171C235.55 498.221 236.069 498.275 236.583 498.376C239.215 498.943 241.745 500.228 243.807 502.184L374 372.345L364.817 363.242ZM126.676 582.523C111.299 563.739 101.959 541.044 99.482 516.912H192.42L126.676 582.523ZM99.4323 491.177C101.909 467.04 111.3 444.4 126.676 425.615L192.47 491.177H99.4323ZM210.68 473.013L144.939 407.398C163.826 392.062 186.477 382.697 210.729 380.228L210.733 473.015L210.68 473.013ZM236.481 473.013V380.281C260.684 382.751 283.384 392.066 302.271 407.401L236.481 473.013ZM320.542 389.13C293.453 366.282 259.445 353.829 223.587 353.829C183.337 353.829 145.514 369.472 117.075 397.828C88.6439 426.182 72.957 463.902 72.957 504.05C72.957 539.868 85.4436 573.729 108.354 600.743L91.7888 617.263C32.9123 549.177 35.8536 445.997 100.561 381.412C134.464 347.601 178.996 330.672 223.529 330.672C264.037 330.672 304.545 344.668 337.052 372.614L320.542 389.13Z" fill="#C8C8C8"/>
<g opacity="0.1" filter="url(#filter4_d_493_2621)">
<g filter="url(#filter5_d_493_2621)">
<path d="M232.608 591.46L220.854 606.031C211.703 617.339 166.016 675.38 166.016 707.489C166.016 744.131 195.89 774 232.608 774C269.331 774 299.201 744.191 299.201 707.489C299.201 675.385 253.514 617.339 244.363 606.031L232.608 591.46ZM232.608 743.707C212.553 743.707 196.313 727.445 196.313 707.427C196.313 694.728 215.156 664.197 232.608 640.373C250.061 664.257 268.904 694.729 268.904 707.427C268.904 727.439 252.664 743.707 232.608 743.707Z" fill="#5AAF4C"/>
</g>
<path d="M364.817 363.242C286.951 285.586 160.272 285.586 82.4001 363.242C4.53331 440.897 4.53331 567.232 82.4001 644.893L91.5319 654L221.725 524.161C219.763 522.05 218.474 519.58 217.906 516.956C216.772 511.913 218.165 506.456 222.085 502.547C225.644 498.997 230.442 497.607 235.036 498.171C235.55 498.221 236.069 498.275 236.583 498.376C239.215 498.943 241.745 500.228 243.807 502.184L374 372.345L364.817 363.242ZM126.676 582.523C111.299 563.739 101.959 541.044 99.482 516.912H192.42L126.676 582.523ZM99.4323 491.177C101.909 467.04 111.3 444.4 126.676 425.615L192.47 491.177H99.4323ZM210.68 473.013L144.939 407.398C163.826 392.062 186.477 382.697 210.729 380.228L210.733 473.015L210.68 473.013ZM236.481 473.013V380.281C260.684 382.751 283.384 392.066 302.271 407.401L236.481 473.013ZM320.542 389.13C293.453 366.282 259.445 353.829 223.587 353.829C183.337 353.829 145.514 369.472 117.075 397.828C88.6439 426.182 72.957 463.902 72.957 504.05C72.957 539.868 85.4436 573.729 108.354 600.743L91.7888 617.263C32.9123 549.177 35.8536 445.997 100.561 381.412C134.464 347.601 178.996 330.672 223.529 330.672C264.037 330.672 304.545 344.668 337.052 372.614L320.542 389.13Z" fill="#C8C8C8"/>
</g>
</g>
<g opacity="0.1" filter="url(#filter6_d_493_2621)">
<g filter="url(#filter7_d_493_2621)">
<path d="M1016.61 1042.46L1004.85 1057.03C995.703 1068.34 950.016 1126.38 950.016 1158.49C950.016 1195.13 979.89 1225 1016.61 1225C1053.33 1225 1083.2 1195.19 1083.2 1158.49C1083.2 1126.39 1037.51 1068.34 1028.36 1057.03L1016.61 1042.46ZM1016.61 1194.71C996.553 1194.71 980.313 1178.44 980.313 1158.43C980.313 1145.73 999.156 1115.2 1016.61 1091.37C1034.06 1115.26 1052.9 1145.73 1052.9 1158.43C1052.9 1178.44 1036.66 1194.71 1016.61 1194.71Z" fill="#5AAF4C"/>
</g>
<path d="M1148.82 814.242C1070.95 736.586 944.272 736.586 866.4 814.242C788.533 891.897 788.533 1018.23 866.4 1095.89L875.532 1105L1005.72 975.161C1003.76 973.05 1002.47 970.58 1001.91 967.956C1000.77 962.913 1002.16 957.456 1006.08 953.547C1009.64 949.997 1014.44 948.607 1019.04 949.171C1019.55 949.221 1020.07 949.275 1020.58 949.376C1023.21 949.943 1025.74 951.228 1027.81 953.184L1158 823.345L1148.82 814.242ZM910.676 1033.52C895.299 1014.74 885.959 992.044 883.482 967.912H976.42L910.676 1033.52ZM883.432 942.177C885.909 918.04 895.3 895.4 910.676 876.615L976.47 942.177H883.432ZM994.68 924.013L928.939 858.398C947.826 843.062 970.477 833.697 994.729 831.228L994.733 924.015L994.68 924.013ZM1020.48 924.013V831.281C1044.68 833.751 1067.38 843.066 1086.27 858.401L1020.48 924.013ZM1104.54 840.13C1077.45 817.282 1043.45 804.829 1007.59 804.829C967.337 804.829 929.514 820.472 901.075 848.828C872.644 877.182 856.957 914.902 856.957 955.05C856.957 990.868 869.444 1024.73 892.354 1051.74L875.789 1068.26C816.912 1000.18 819.854 896.997 884.561 832.412C918.464 798.601 962.996 781.672 1007.53 781.672C1048.04 781.672 1088.55 795.668 1121.05 823.614L1104.54 840.13Z" fill="#C8C8C8"/>
<g opacity="0.1" filter="url(#filter8_d_493_2621)">
<g filter="url(#filter9_d_493_2621)">
<path d="M1016.61 1042.46L1004.85 1057.03C995.703 1068.34 950.016 1126.38 950.016 1158.49C950.016 1195.13 979.89 1225 1016.61 1225C1053.33 1225 1083.2 1195.19 1083.2 1158.49C1083.2 1126.39 1037.51 1068.34 1028.36 1057.03L1016.61 1042.46ZM1016.61 1194.71C996.553 1194.71 980.313 1178.44 980.313 1158.43C980.313 1145.73 999.156 1115.2 1016.61 1091.37C1034.06 1115.26 1052.9 1145.73 1052.9 1158.43C1052.9 1178.44 1036.66 1194.71 1016.61 1194.71Z" fill="#5AAF4C"/>
</g>
<path d="M1148.82 814.242C1070.95 736.586 944.272 736.586 866.4 814.242C788.533 891.897 788.533 1018.23 866.4 1095.89L875.532 1105L1005.72 975.161C1003.76 973.05 1002.47 970.58 1001.91 967.956C1000.77 962.913 1002.16 957.456 1006.08 953.547C1009.64 949.997 1014.44 948.607 1019.04 949.171C1019.55 949.221 1020.07 949.275 1020.58 949.376C1023.21 949.943 1025.74 951.228 1027.81 953.184L1158 823.345L1148.82 814.242ZM910.676 1033.52C895.299 1014.74 885.959 992.044 883.482 967.912H976.42L910.676 1033.52ZM883.432 942.177C885.909 918.04 895.3 895.4 910.676 876.615L976.47 942.177H883.432ZM994.68 924.013L928.939 858.398C947.826 843.062 970.477 833.697 994.729 831.228L994.733 924.015L994.68 924.013ZM1020.48 924.013V831.281C1044.68 833.751 1067.38 843.066 1086.27 858.401L1020.48 924.013ZM1104.54 840.13C1077.45 817.282 1043.45 804.829 1007.59 804.829C967.337 804.829 929.514 820.472 901.075 848.828C872.644 877.182 856.957 914.902 856.957 955.05C856.957 990.868 869.444 1024.73 892.354 1051.74L875.789 1068.26C816.912 1000.18 819.854 896.997 884.561 832.412C918.464 798.601 962.996 781.672 1007.53 781.672C1048.04 781.672 1088.55 795.668 1121.05 823.614L1104.54 840.13Z" fill="#C8C8C8"/>
</g>
</g>
<defs>
<filter id="filter0_d_493_2621" x="1252" y="0" width="398" height="517" filterUnits="userSpaceOnUse" color-interpolation-filters="sRGB">
<feFlood flood-opacity="0" result="BackgroundImageFix"/>
<feColorMatrix in="SourceAlpha" type="matrix" values="0 0 0 0 0 0 0 0 0 0 0 0 0 0 0 0 0 0 127 0" result="hardAlpha"/>
<feOffset dy="8"/>
<feGaussianBlur stdDeviation="12"/>
<feComposite in2="hardAlpha" operator="out"/>
<feColorMatrix type="matrix" values="0 0 0 0 0.0823529 0 0 0 0 0.0823529 0 0 0 0 0.0823529 0 0 0 0.05 0"/>
<feBlend mode="normal" in2="BackgroundImageFix" result="effect1_dropShadow_493_2621"/>
<feBlend mode="normal" in="SourceGraphic" in2="effect1_dropShadow_493_2621" result="shape"/>
</filter>
<filter id="filter1_d_493_2621" x="1342.02" y="226.46" width="285.186" height="334.54" filterUnits="userSpaceOnUse" color-interpolation-filters="sRGB">
<feFlood flood-opacity="0" result="BackgroundImageFix"/>
<feColorMatrix in="SourceAlpha" type="matrix" values="0 0 0 0 0 0 0 0 0 0 0 0 0 0 0 0 0 0 127 0" result="hardAlpha"/>
<feOffset/>
<feGaussianBlur stdDeviation="38"/>
<feComposite in2="hardAlpha" operator="out"/>
<feColorMatrix type="matrix" values="0 0 0 0 0.352941 0 0 0 0 0.686275 0 0 0 0 0.298039 0 0 0 0.5 0"/>
<feBlend mode="normal" in2="BackgroundImageFix" result="effect1_dropShadow_493_2621"/>
<feBlend mode="normal" in="SourceGraphic" in2="effect1_dropShadow_493_2621" result="shape"/>
</filter>
<filter id="filter2_d_493_2621" x="0" y="289" width="398" height="517" filterUnits="userSpaceOnUse" color-interpolation-filters="sRGB">
<feFlood flood-opacity="0" result="BackgroundImageFix"/>
<feColorMatrix in="SourceAlpha" type="matrix" values="0 0 0 0 0 0 0 0 0 0 0 0 0 0 0 0 0 0 127 0" result="hardAlpha"/>
<feOffset dy="8"/>
<feGaussianBlur stdDeviation="12"/>
<feComposite in2="hardAlpha" operator="out"/>
<feColorMatrix type="matrix" values="0 0 0 0 0.0823529 0 0 0 0 0.0823529 0 0 0 0 0.0823529 0 0 0 0.05 0"/>
<feBlend mode="normal" in2="BackgroundImageFix" result="effect1_dropShadow_493_2621"/>
<feBlend mode="normal" in="SourceGraphic" in2="effect1_dropShadow_493_2621" result="shape"/>
</filter>
<filter id="filter3_d_493_2621" x="90.0156" y="515.46" width="285.186" height="334.54" filterUnits="userSpaceOnUse" color-interpolation-filters="sRGB">
<feFlood flood-opacity="0" result="BackgroundImageFix"/>
<feColorMatrix in="SourceAlpha" type="matrix" values="0 0 0 0 0 0 0 0 0 0 0 0 0 0 0 0 0 0 127 0" result="hardAlpha"/>
<feOffset/>
<feGaussianBlur stdDeviation="38"/>
<feComposite in2="hardAlpha" operator="out"/>
<feColorMatrix type="matrix" values="0 0 0 0 0.352941 0 0 0 0 0.686275 0 0 0 0 0.298039 0 0 0 0.5 0"/>
<feBlend mode="normal" in2="BackgroundImageFix" result="effect1_dropShadow_493_2621"/>
<feBlend mode="normal" in="SourceGraphic" in2="effect1_dropShadow_493_2621" result="shape"/>
</filter>
<filter id="filter4_d_493_2621" x="0" y="289" width="398" height="517" filterUnits="userSpaceOnUse" color-interpolation-filters="sRGB">
<feFlood flood-opacity="0" result="BackgroundImageFix"/>
<feColorMatrix in="SourceAlpha" type="matrix" values="0 0 0 0 0 0 0 0 0 0 0 0 0 0 0 0 0 0 127 0" result="hardAlpha"/>
<feOffset dy="8"/>
<feGaussianBlur stdDeviation="12"/>
<feComposite in2="hardAlpha" operator="out"/>
<feColorMatrix type="matrix" values="0 0 0 0 0.0823529 0 0 0 0 0.0823529 0 0 0 0 0.0823529 0 0 0 0.05 0"/>
<feBlend mode="normal" in2="BackgroundImageFix" result="effect1_dropShadow_493_2621"/>
<feBlend mode="normal" in="SourceGraphic" in2="effect1_dropShadow_493_2621" result="shape"/>
</filter>
<filter id="filter5_d_493_2621" x="90.0156" y="515.46" width="285.186" height="334.54" filterUnits="userSpaceOnUse" color-interpolation-filters="sRGB">
<feFlood flood-opacity="0" result="BackgroundImageFix"/>
<feColorMatrix in="SourceAlpha" type="matrix" values="0 0 0 0 0 0 0 0 0 0 0 0 0 0 0 0 0 0 127 0" result="hardAlpha"/>
<feOffset/>
<feGaussianBlur stdDeviation="38"/>
<feComposite in2="hardAlpha" operator="out"/>
<feColorMatrix type="matrix" values="0 0 0 0 0.352941 0 0 0 0 0.686275 0 0 0 0 0.298039 0 0 0 0.5 0"/>
<feBlend mode="normal" in2="BackgroundImageFix" result="effect1_dropShadow_493_2621"/>
<feBlend mode="normal" in="SourceGraphic" in2="effect1_dropShadow_493_2621" result="shape"/>
</filter>
<filter id="filter6_d_493_2621" x="784" y="740" width="398" height="517" filterUnits="userSpaceOnUse" color-interpolation-filters="sRGB">
<feFlood flood-opacity="0" result="BackgroundImageFix"/>
<feColorMatrix in="SourceAlpha" type="matrix" values="0 0 0 0 0 0 0 0 0 0 0 0 0 0 0 0 0 0 127 0" result="hardAlpha"/>
<feOffset dy="8"/>
<feGaussianBlur stdDeviation="12"/>
<feComposite in2="hardAlpha" operator="out"/>
<feColorMatrix type="matrix" values="0 0 0 0 0.0823529 0 0 0 0 0.0823529 0 0 0 0 0.0823529 0 0 0 0.05 0"/>
<feBlend mode="normal" in2="BackgroundImageFix" result="effect1_dropShadow_493_2621"/>
<feBlend mode="normal" in="SourceGraphic" in2="effect1_dropShadow_493_2621" result="shape"/>
</filter>
<filter id="filter7_d_493_2621" x="874.016" y="966.46" width="285.186" height="334.54" filterUnits="userSpaceOnUse" color-interpolation-filters="sRGB">
<feFlood flood-opacity="0" result="BackgroundImageFix"/>
<feColorMatrix in="SourceAlpha" type="matrix" values="0 0 0 0 0 0 0 0 0 0 0 0 0 0 0 0 0 0 127 0" result="hardAlpha"/>
<feOffset/>
<feGaussianBlur stdDeviation="38"/>
<feComposite in2="hardAlpha" operator="out"/>
<feColorMatrix type="matrix" values="0 0 0 0 0.352941 0 0 0 0 0.686275 0 0 0 0 0.298039 0 0 0 0.5 0"/>
<feBlend mode="normal" in2="BackgroundImageFix" result="effect1_dropShadow_493_2621"/>
<feBlend mode="normal" in="SourceGraphic" in2="effect1_dropShadow_493_2621" result="shape"/>
</filter>
<filter id="filter8_d_493_2621" x="784" y="740" width="398" height="517" filterUnits="userSpaceOnUse" color-interpolation-filters="sRGB">
<feFlood flood-opacity="0" result="BackgroundImageFix"/>
<feColorMatrix in="SourceAlpha" type="matrix" values="0 0 0 0 0 0 0 0 0 0 0 0 0 0 0 0 0 0 127 0" result="hardAlpha"/>
<feOffset dy="8"/>
<feGaussianBlur stdDeviation="12"/>
<feComposite in2="hardAlpha" operator="out"/>
<feColorMatrix type="matrix" values="0 0 0 0 0.0823529 0 0 0 0 0.0823529 0 0 0 0 0.0823529 0 0 0 0.05 0"/>
<feBlend mode="normal" in2="BackgroundImageFix" result="effect1_dropShadow_493_2621"/>
<feBlend mode="normal" in="SourceGraphic" in2="effect1_dropShadow_493_2621" result="shape"/>
</filter>
<filter id="filter9_d_493_2621" x="874.016" y="966.46" width="285.186" height="334.54" filterUnits="userSpaceOnUse" color-interpolation-filters="sRGB">
<feFlood flood-opacity="0" result="BackgroundImageFix"/>
<feColorMatrix in="SourceAlpha" type="matrix" values="0 0 0 0 0 0 0 0 0 0 0 0 0 0 0 0 0 0 127 0" result="hardAlpha"/>
<feOffset/>
<feGaussianBlur stdDeviation="38"/>
<feComposite in2="hardAlpha" operator="out"/>
<feColorMatrix type="matrix" values="0 0 0 0 0.352941 0 0 0 0 0.686275 0 0 0 0 0.298039 0 0 0 0.5 0"/>
<feBlend mode="normal" in2="BackgroundImageFix" result="effect1_dropShadow_493_2621"/>
<feBlend mode="normal" in="SourceGraphic" in2="effect1_dropShadow_493_2621" result="shape"/>
</filter>
</defs>
</svg>
