<svg width="45" height="45" viewBox="0 0 45 45" fill="none" xmlns="http://www.w3.org/2000/svg">
<rect width="45" height="45" rx="6" fill="#5AAF4C" fill-opacity="0.15"/>
<path d="M33.7922 26.0999C31.3687 23.6562 31.6781 24.0281 34.6172 19.8312C36.3703 17.2812 37.0922 15.6875 36.8859 14.9968C36.7828 14.5718 35.3906 14.6781 35.3906 14.6781H31.0593C31.0593 14.6781 30.389 14.6781 30.1312 15.1562C29.6672 16.0593 29.4609 17.175 28.5328 18.8218C26.5734 22.3812 25.8 22.5937 25.4906 22.3812C24.7687 21.8499 24.9234 20.3093 24.9234 19.1937C24.9234 15.7406 25.3875 14.3062 23.9953 13.8812C23.6859 13.775 23.4281 13.775 22.964 13.7218C22.3968 13.6687 21.8297 13.6687 21.314 13.6687C20.025 13.6687 19.0453 13.7218 18.375 14.0406C17.8593 14.3062 17.4984 14.8906 17.7562 14.9437C18.0656 14.9968 18.6843 15.1562 19.0453 15.6343C19.5093 16.2718 19.4578 17.7593 19.4578 17.7593C19.4578 17.7593 19.7156 21.8499 18.839 22.3281C18.2718 22.7 17.4468 21.9562 15.7453 18.7156C14.8687 17.0687 14.7656 15.9531 14.1984 15.2093C13.8375 14.7312 13.1672 14.5718 13.1672 14.5718H9.04215C9.04215 14.5718 8.32028 14.5187 8.21715 14.7312C8.0109 14.9968 8.21715 15.5281 8.21715 15.5281C8.21715 15.5281 11.4656 23.7624 15.1265 27.9062C18.375 31.8374 22.1906 31.6249 22.1906 31.6249C22.1906 31.6249 24.4078 31.7312 24.7172 31.1468C24.9234 30.9343 24.975 30.2968 24.975 30.2968C24.975 30.2968 24.9234 27.7468 26.0062 27.3749C27.089 27.0031 28.4297 29.8187 29.8734 30.8812C30.9562 31.7312 31.2656 31.6249 31.7812 31.6249C32.8125 31.6249 35.6484 31.6249 35.6484 31.6249C35.6484 31.6249 37.6593 31.4124 36.7312 29.6593C36.5765 29.5531 36.1125 28.4374 33.7922 26.0999Z" fill="#5AAF4C"/>
</svg>
