<svg width="20" height="20" viewBox="0 0 20 20" fill="none" xmlns="http://www.w3.org/2000/svg">
<path d="M9.99996 10C11.8409 10 13.3333 8.50761 13.3333 6.66666C13.3333 4.82571 11.8409 3.33333 9.99996 3.33333C8.15901 3.33333 6.66663 4.82571 6.66663 6.66666C6.66663 8.50761 8.15901 10 9.99996 10Z" />
<path d="M16.6667 15.8333V16.6667C16.6667 16.8877 16.5789 17.0996 16.4226 17.2559C16.2664 17.4122 16.0544 17.5 15.8334 17.5H4.16671C3.94569 17.5 3.73373 17.4122 3.57745 17.2559C3.42117 17.0996 3.33337 16.8877 3.33337 16.6667V15.8333C3.33337 14.5072 3.86016 13.2355 4.79784 12.2978C5.73552 11.3601 7.00729 10.8333 8.33337 10.8333H11.6667C12.9928 10.8333 14.2646 11.3601 15.2022 12.2978C16.1399 13.2355 16.6667 14.5072 16.6667 15.8333V15.8333Z" />
</svg>
